<svg width="760" height="216" viewBox="0 0 760 216" fill="none" xmlns="http://www.w3.org/2000/svg">
<path d="M279.523 116H248.585V28.7273H279.778C288.557 28.7273 296.114 30.4744 302.449 33.9688C308.784 37.4347 313.656 42.4205 317.065 48.9261C320.503 55.4318 322.222 63.2159 322.222 72.2784C322.222 81.3693 320.503 89.1818 317.065 95.7159C313.656 102.25 308.756 107.264 302.364 110.759C296 114.253 288.386 116 279.523 116ZM267.037 100.19H278.756C284.21 100.19 288.798 99.2244 292.52 97.2926C296.27 95.3324 299.082 92.3068 300.957 88.2159C302.861 84.0966 303.812 78.7841 303.812 72.2784C303.812 65.8295 302.861 60.5597 300.957 56.4688C299.082 52.3778 296.284 49.3665 292.562 47.4347C288.841 45.5028 284.253 44.5369 278.798 44.5369H267.037V100.19ZM354.214 117.236C350.038 117.236 346.316 116.511 343.049 115.062C339.782 113.585 337.197 111.412 335.293 108.543C333.418 105.645 332.481 102.037 332.481 97.7188C332.481 94.0824 333.148 91.0284 334.484 88.5568C335.819 86.0852 337.637 84.0966 339.938 82.5909C342.239 81.0852 344.853 79.9489 347.779 79.1818C350.734 78.4148 353.83 77.875 357.069 77.5625C360.876 77.1648 363.944 76.7955 366.273 76.4545C368.603 76.0852 370.293 75.5455 371.344 74.8352C372.396 74.125 372.921 73.0739 372.921 71.6818V71.4261C372.921 68.7273 372.069 66.6392 370.364 65.1619C368.688 63.6847 366.302 62.946 363.205 62.946C359.938 62.946 357.339 63.6705 355.407 65.1193C353.475 66.5398 352.197 68.3295 351.572 70.4886L334.782 69.125C335.634 65.1477 337.31 61.7102 339.81 58.8125C342.31 55.8864 345.535 53.642 349.484 52.0795C353.461 50.4886 358.063 49.6932 363.29 49.6932C366.927 49.6932 370.407 50.1193 373.731 50.9716C377.083 51.8239 380.052 53.1449 382.637 54.9347C385.251 56.7244 387.31 59.0256 388.816 61.8381C390.322 64.6222 391.075 67.9602 391.075 71.8523V116H373.859V106.923H373.347C372.296 108.969 370.89 110.773 369.129 112.335C367.367 113.869 365.251 115.077 362.779 115.957C360.308 116.81 357.452 117.236 354.214 117.236ZM359.413 104.707C362.083 104.707 364.441 104.182 366.487 103.131C368.532 102.051 370.137 100.602 371.302 98.7841C372.467 96.9659 373.049 94.9062 373.049 92.6051V85.6591C372.481 86.0284 371.7 86.3693 370.705 86.6818C369.739 86.9659 368.646 87.2358 367.424 87.4915C366.202 87.7187 364.981 87.9318 363.759 88.1307C362.538 88.3011 361.43 88.4574 360.435 88.5994C358.305 88.9119 356.444 89.4091 354.853 90.0909C353.262 90.7727 352.026 91.696 351.146 92.8608C350.265 93.9972 349.825 95.4176 349.825 97.1222C349.825 99.5938 350.719 101.483 352.509 102.79C354.327 104.068 356.629 104.707 359.413 104.707ZM463.837 50.5455L440.954 116H420.499L397.616 50.5455H416.792L430.386 97.3778H431.067L444.619 50.5455H463.837ZM473.127 116V50.5455H491.281V116H473.127ZM482.246 42.108C479.548 42.108 477.232 41.2131 475.3 39.4233C473.397 37.6051 472.445 35.4318 472.445 32.9034C472.445 30.4034 473.397 28.2585 475.3 26.4688C477.232 24.6506 479.548 23.7415 482.246 23.7415C484.945 23.7415 487.246 24.6506 489.15 26.4688C491.082 28.2585 492.048 30.4034 492.048 32.9034C492.048 35.4318 491.082 37.6051 489.15 39.4233C487.246 41.2131 484.945 42.108 482.246 42.108ZM529.942 117.065C524.97 117.065 520.467 115.787 516.433 113.23C512.428 110.645 509.246 106.852 506.888 101.852C504.558 96.8239 503.393 90.6591 503.393 83.358C503.393 75.858 504.601 69.6222 507.016 64.6506C509.43 59.6506 512.641 55.9148 516.646 53.4432C520.68 50.9432 525.098 49.6932 529.899 49.6932C533.564 49.6932 536.618 50.3182 539.061 51.5682C541.533 52.7898 543.521 54.3239 545.027 56.1705C546.561 57.9886 547.726 59.7784 548.521 61.5398H549.075V28.7273H567.186V116H549.288V105.517H548.521C547.669 107.335 546.462 109.139 544.899 110.929C543.365 112.69 541.362 114.153 538.891 115.318C536.447 116.483 533.464 117.065 529.942 117.065ZM535.695 102.619C538.621 102.619 541.092 101.824 543.109 100.233C545.155 98.6136 546.717 96.3551 547.797 93.4574C548.905 90.5597 549.459 87.1648 549.459 83.2727C549.459 79.3807 548.919 76 547.839 73.1307C546.76 70.2614 545.197 68.0455 543.152 66.483C541.107 64.9205 538.621 64.1392 535.695 64.1392C532.712 64.1392 530.197 64.9489 528.152 66.5682C526.107 68.1875 524.558 70.4318 523.507 73.3011C522.456 76.1705 521.93 79.4943 521.93 83.2727C521.93 87.0795 522.456 90.446 523.507 93.3722C524.587 96.2699 526.135 98.5426 528.152 100.19C530.197 101.81 532.712 102.619 535.695 102.619Z" fill="black"/>
<path d="M251.227 204V169.091H272.159V172.841H255.455V184.636H270.591V188.386H255.455V204H251.227ZM279.399 204V169.091H291.195C293.922 169.091 296.161 169.557 297.911 170.489C299.661 171.409 300.956 172.676 301.797 174.29C302.638 175.903 303.058 177.739 303.058 179.795C303.058 181.852 302.638 183.676 301.797 185.267C300.956 186.858 299.666 188.108 297.928 189.017C296.189 189.915 293.967 190.364 291.263 190.364H281.717V186.545H291.126C292.99 186.545 294.49 186.273 295.626 185.727C296.774 185.182 297.604 184.409 298.115 183.409C298.638 182.398 298.899 181.193 298.899 179.795C298.899 178.398 298.638 177.176 298.115 176.131C297.592 175.085 296.757 174.278 295.609 173.71C294.462 173.131 292.945 172.841 291.058 172.841H283.626V204H279.399ZM295.831 188.318L304.422 204H299.513L291.058 188.318H295.831ZM339.557 186.545C339.557 190.227 338.892 193.409 337.562 196.091C336.233 198.773 334.409 200.841 332.091 202.295C329.773 203.75 327.125 204.477 324.148 204.477C321.17 204.477 318.523 203.75 316.205 202.295C313.886 200.841 312.063 198.773 310.733 196.091C309.403 193.409 308.739 190.227 308.739 186.545C308.739 182.864 309.403 179.682 310.733 177C312.063 174.318 313.886 172.25 316.205 170.795C318.523 169.341 321.17 168.614 324.148 168.614C327.125 168.614 329.773 169.341 332.091 170.795C334.409 172.25 336.233 174.318 337.562 177C338.892 179.682 339.557 182.864 339.557 186.545ZM335.466 186.545C335.466 183.523 334.96 180.972 333.949 178.892C332.949 176.812 331.591 175.239 329.875 174.17C328.17 173.102 326.261 172.568 324.148 172.568C322.034 172.568 320.119 173.102 318.403 174.17C316.699 175.239 315.341 176.812 314.33 178.892C313.33 180.972 312.83 183.523 312.83 186.545C312.83 189.568 313.33 192.119 314.33 194.199C315.341 196.278 316.699 197.852 318.403 198.92C320.119 199.989 322.034 200.523 324.148 200.523C326.261 200.523 328.17 199.989 329.875 198.92C331.591 197.852 332.949 196.278 333.949 194.199C334.96 192.119 335.466 189.568 335.466 186.545ZM374.347 169.091V204H370.256L351.233 176.591H350.892V204H346.665V169.091H350.756L369.847 196.568H370.188V169.091H374.347ZM380.896 172.841V169.091H407.078V172.841H396.101V204H391.874V172.841H380.896ZM413.602 204V169.091H434.67V172.841H417.83V184.636H433.58V188.386H417.83V200.25H434.943V204H413.602ZM469.972 169.091V204H465.881L446.858 176.591H446.517V204H442.29V169.091H446.381L465.472 196.568H465.812V169.091H469.972ZM501.271 204.477C498.976 204.477 496.999 204.057 495.339 203.216C493.68 202.375 492.402 201.222 491.504 199.756C490.607 198.29 490.158 196.614 490.158 194.727C490.158 193.273 490.464 191.983 491.078 190.858C491.703 189.722 492.561 188.67 493.652 187.705C494.754 186.727 496.021 185.75 497.453 184.773L502.499 181.023C503.487 180.375 504.277 179.682 504.868 178.943C505.47 178.205 505.771 177.239 505.771 176.045C505.771 175.159 505.379 174.301 504.595 173.472C503.822 172.642 502.805 172.227 501.544 172.227C500.658 172.227 499.874 172.455 499.192 172.909C498.521 173.352 497.993 173.92 497.607 174.614C497.232 175.295 497.044 176 497.044 176.727C497.044 177.545 497.266 178.375 497.709 179.216C498.163 180.045 498.737 180.898 499.43 181.773C500.135 182.636 500.862 183.523 501.612 184.432L517.635 204H512.794L499.567 188.045C498.339 186.568 497.226 185.227 496.226 184.023C495.226 182.818 494.43 181.631 493.839 180.46C493.249 179.29 492.953 178.023 492.953 176.659C492.953 175.091 493.3 173.716 493.993 172.534C494.697 171.341 495.68 170.415 496.942 169.756C498.214 169.085 499.703 168.75 501.408 168.75C503.158 168.75 504.663 169.091 505.925 169.773C507.186 170.443 508.158 171.335 508.839 172.449C509.521 173.551 509.862 174.75 509.862 176.045C509.862 177.716 509.447 179.165 508.618 180.392C507.788 181.619 506.658 182.761 505.226 183.818L498.271 189C496.703 190.159 495.641 191.284 495.084 192.375C494.527 193.466 494.249 194.25 494.249 194.727C494.249 195.818 494.533 196.835 495.101 197.778C495.669 198.722 496.47 199.483 497.504 200.062C498.538 200.642 499.749 200.932 501.135 200.932C502.453 200.932 503.737 200.653 504.987 200.097C506.237 199.528 507.368 198.71 508.379 197.642C509.402 196.574 510.209 195.29 510.8 193.79C511.402 192.29 511.703 190.602 511.703 188.727H515.589C515.589 191.045 515.322 192.937 514.788 194.403C514.254 195.869 513.652 197.017 512.982 197.847C512.311 198.676 511.771 199.295 511.362 199.705C511.226 199.875 511.101 200.045 510.987 200.216C510.874 200.386 510.749 200.557 510.612 200.727C509.487 201.989 508.067 202.932 506.351 203.557C504.635 204.17 502.942 204.477 501.271 204.477ZM536.134 204V169.091H548.338C550.77 169.091 552.776 169.511 554.355 170.352C555.935 171.182 557.111 172.301 557.884 173.71C558.656 175.108 559.043 176.659 559.043 178.364C559.043 179.864 558.776 181.102 558.241 182.08C557.719 183.057 557.026 183.83 556.162 184.398C555.31 184.966 554.384 185.386 553.384 185.659V186C554.452 186.068 555.526 186.443 556.605 187.125C557.685 187.807 558.588 188.784 559.315 190.057C560.043 191.33 560.406 192.886 560.406 194.727C560.406 196.477 560.009 198.051 559.213 199.449C558.418 200.847 557.162 201.955 555.446 202.773C553.73 203.591 551.497 204 548.747 204H536.134ZM540.361 200.25H548.747C551.509 200.25 553.469 199.716 554.628 198.648C555.798 197.568 556.384 196.261 556.384 194.727C556.384 193.545 556.082 192.455 555.48 191.455C554.878 190.443 554.02 189.636 552.906 189.034C551.793 188.42 550.474 188.114 548.952 188.114H540.361V200.25ZM540.361 184.432H548.202C549.474 184.432 550.622 184.182 551.645 183.682C552.679 183.182 553.497 182.477 554.099 181.568C554.713 180.659 555.02 179.591 555.02 178.364C555.02 176.83 554.486 175.528 553.418 174.46C552.349 173.381 550.656 172.841 548.338 172.841H540.361V184.432ZM568.784 204H564.352L577.17 169.091H581.534L594.352 204H589.92L579.489 174.614H579.216L568.784 204ZM570.42 190.364H588.284V194.114H570.42V190.364ZM626.24 180H622.013C621.763 178.784 621.325 177.716 620.7 176.795C620.087 175.875 619.337 175.102 618.45 174.477C617.575 173.841 616.604 173.364 615.536 173.045C614.467 172.727 613.354 172.568 612.195 172.568C610.081 172.568 608.166 173.102 606.45 174.17C604.746 175.239 603.388 176.812 602.376 178.892C601.376 180.972 600.876 183.523 600.876 186.545C600.876 189.568 601.376 192.119 602.376 194.199C603.388 196.278 604.746 197.852 606.45 198.92C608.166 199.989 610.081 200.523 612.195 200.523C613.354 200.523 614.467 200.364 615.536 200.045C616.604 199.727 617.575 199.256 618.45 198.631C619.337 197.994 620.087 197.216 620.7 196.295C621.325 195.364 621.763 194.295 622.013 193.091H626.24C625.922 194.875 625.342 196.472 624.501 197.881C623.661 199.29 622.615 200.489 621.365 201.477C620.115 202.455 618.712 203.199 617.155 203.71C615.609 204.222 613.956 204.477 612.195 204.477C609.217 204.477 606.57 203.75 604.251 202.295C601.933 200.841 600.109 198.773 598.78 196.091C597.45 193.409 596.786 190.227 596.786 186.545C596.786 182.864 597.45 179.682 598.78 177C600.109 174.318 601.933 172.25 604.251 170.795C606.57 169.341 609.217 168.614 612.195 168.614C613.956 168.614 615.609 168.869 617.155 169.381C618.712 169.892 620.115 170.642 621.365 171.631C622.615 172.608 623.661 173.801 624.501 175.21C625.342 176.608 625.922 178.205 626.24 180ZM633.071 204V169.091H637.298V186.409H637.707L653.389 169.091H658.912L644.253 184.841L658.912 204H653.798L641.662 187.773L637.298 192.682V204H633.071ZM664.384 204V169.091H685.452V172.841H668.611V184.636H684.361V188.386H668.611V200.25H685.724V204H664.384ZM720.753 169.091V204H716.662L697.639 176.591H697.298V204H693.071V169.091H697.162L716.253 196.568H716.594V169.091H720.753ZM739.984 204H729.212V169.091H740.462C743.848 169.091 746.746 169.79 749.155 171.188C751.564 172.574 753.411 174.568 754.695 177.17C755.979 179.761 756.621 182.864 756.621 186.477C756.621 190.114 755.973 193.244 754.678 195.869C753.382 198.483 751.496 200.494 749.018 201.903C746.541 203.301 743.53 204 739.984 204ZM733.439 200.25H739.712C742.598 200.25 744.99 199.693 746.888 198.58C748.786 197.466 750.2 195.881 751.132 193.824C752.064 191.767 752.53 189.318 752.53 186.477C752.53 183.659 752.07 181.233 751.149 179.199C750.229 177.153 748.854 175.585 747.024 174.494C745.195 173.392 742.916 172.841 740.189 172.841H733.439V200.25Z" fill="#525B78"/>
<rect y="21" width="195" height="195" rx="16" fill="#D9D9D9"/>
<rect y="21" width="195" height="195" rx="16" fill="#6366F1"/>
<path d="M69.1289 133.809V74.6875H86.6484V133.809C86.6484 139.512 85.3984 144.414 82.8984 148.516C80.3984 152.578 76.9805 155.703 72.6445 157.891C68.3477 160.078 63.5039 161.172 58.1133 161.172C52.5273 161.172 47.5859 160.234 43.2891 158.359C38.9922 156.484 35.6133 153.613 33.1523 149.746C30.6914 145.84 29.4609 140.898 29.4609 134.922H47.0977C47.0977 138.047 47.5273 140.527 48.3867 142.363C49.2852 144.199 50.5547 145.508 52.1953 146.289C53.8359 147.07 55.8086 147.461 58.1133 147.461C60.3398 147.461 62.2734 146.934 63.9141 145.879C65.5547 144.824 66.8242 143.281 67.7227 141.25C68.6602 139.219 69.1289 136.738 69.1289 133.809ZM146.062 137.676C146.062 136.152 145.828 134.785 145.359 133.574C144.93 132.324 144.109 131.191 142.898 130.176C141.688 129.121 139.988 128.086 137.801 127.07C135.613 126.055 132.781 125 129.305 123.906C125.438 122.656 121.766 121.25 118.289 119.688C114.852 118.125 111.805 116.309 109.148 114.238C106.531 112.129 104.461 109.688 102.938 106.914C101.453 104.141 100.711 100.918 100.711 97.2461C100.711 93.6914 101.492 90.4688 103.055 87.5781C104.617 84.6484 106.805 82.1484 109.617 80.0781C112.43 77.9688 115.75 76.3477 119.578 75.2148C123.445 74.082 127.684 73.5156 132.293 73.5156C138.582 73.5156 144.07 74.6484 148.758 76.9141C153.445 79.1797 157.078 82.2852 159.656 86.2305C162.273 90.1758 163.582 94.6875 163.582 99.7656H146.121C146.121 97.2656 145.594 95.0781 144.539 93.2031C143.523 91.2891 141.961 89.7852 139.852 88.6914C137.781 87.5977 135.164 87.0508 132 87.0508C128.953 87.0508 126.414 87.5195 124.383 88.457C122.352 89.3555 120.828 90.5859 119.812 92.1484C118.797 93.6719 118.289 95.3906 118.289 97.3047C118.289 98.75 118.641 100.059 119.344 101.23C120.086 102.402 121.18 103.496 122.625 104.512C124.07 105.527 125.848 106.484 127.957 107.383C130.066 108.281 132.508 109.16 135.281 110.02C139.93 111.426 144.012 113.008 147.527 114.766C151.082 116.523 154.051 118.496 156.434 120.684C158.816 122.871 160.613 125.352 161.824 128.125C163.035 130.898 163.641 134.043 163.641 137.559C163.641 141.27 162.918 144.59 161.473 147.52C160.027 150.449 157.938 152.93 155.203 154.961C152.469 156.992 149.207 158.535 145.418 159.59C141.629 160.645 137.391 161.172 132.703 161.172C128.484 161.172 124.324 160.625 120.223 159.531C116.121 158.398 112.391 156.699 109.031 154.434C105.711 152.168 103.055 149.277 101.062 145.762C99.0703 142.246 98.0742 138.086 98.0742 133.281H115.711C115.711 135.938 116.121 138.184 116.941 140.02C117.762 141.855 118.914 143.34 120.398 144.473C121.922 145.605 123.719 146.426 125.789 146.934C127.898 147.441 130.203 147.695 132.703 147.695C135.75 147.695 138.25 147.266 140.203 146.406C142.195 145.547 143.66 144.355 144.598 142.832C145.574 141.309 146.062 139.59 146.062 137.676Z" fill="white"/>
</svg>
