<svg width="761" height="230" viewBox="0 0 761 230" fill="none" xmlns="http://www.w3.org/2000/svg">
<path d="M267.057 117.108C262.881 117.108 259.173 116.412 255.935 115.02C252.724 113.599 250.182 111.469 248.307 108.628C246.46 105.759 245.537 102.165 245.537 97.8466C245.537 94.2102 246.176 91.142 247.455 88.642C248.733 86.142 250.494 84.1108 252.739 82.5483C254.983 80.9858 257.568 79.8068 260.494 79.0114C263.42 78.1875 266.545 77.6335 269.869 77.3494C273.591 77.0085 276.588 76.6534 278.861 76.2841C281.134 75.8864 282.781 75.3324 283.804 74.6222C284.855 73.8835 285.381 72.8466 285.381 71.5114V71.2983C285.381 69.1108 284.628 67.4205 283.122 66.2273C281.616 65.0341 279.585 64.4375 277.028 64.4375C274.273 64.4375 272.057 65.0341 270.381 66.2273C268.705 67.4205 267.639 69.0682 267.185 71.1705L247.966 70.4886C248.534 66.5114 249.997 62.9602 252.355 59.8352C254.741 56.6818 258.009 54.2102 262.156 52.4205C266.332 50.6023 271.347 49.6932 277.199 49.6932C281.375 49.6932 285.224 50.1903 288.747 51.1847C292.27 52.1506 295.338 53.571 297.952 55.446C300.565 57.2926 302.582 59.5653 304.003 62.2642C305.452 64.9631 306.176 68.0455 306.176 71.5114V116H286.574V106.881H286.062C284.898 109.097 283.406 110.972 281.588 112.506C279.798 114.04 277.682 115.19 275.239 115.957C272.824 116.724 270.097 117.108 267.057 117.108ZM273.491 103.472C275.736 103.472 277.753 103.017 279.543 102.108C281.361 101.199 282.81 99.9489 283.889 98.358C284.969 96.7386 285.509 94.8636 285.509 92.733V86.5114C284.912 86.8239 284.188 87.108 283.335 87.3636C282.511 87.6193 281.602 87.8608 280.608 88.0881C279.614 88.3153 278.591 88.5142 277.54 88.6847C276.489 88.8551 275.48 89.0114 274.514 89.1534C272.554 89.4659 270.878 89.9489 269.486 90.6023C268.122 91.2557 267.071 92.108 266.332 93.1591C265.622 94.1818 265.267 95.4034 265.267 96.8239C265.267 98.983 266.034 100.631 267.568 101.767C269.131 102.903 271.105 103.472 273.491 103.472ZM339.756 78.6705V116H318.918V50.5455H338.733V62.5625H339.457C340.906 58.5568 343.378 55.4176 346.872 53.1449C350.366 50.8438 354.528 49.6932 359.358 49.6932C363.96 49.6932 367.952 50.7301 371.332 52.804C374.741 54.8494 377.384 57.7187 379.259 61.4119C381.162 65.0767 382.099 69.3665 382.071 74.2812V116H361.233V78.3722C361.261 74.7358 360.338 71.8949 358.463 69.8494C356.616 67.804 354.045 66.7812 350.75 66.7812C348.562 66.7812 346.631 67.2642 344.955 68.2301C343.307 69.1676 342.028 70.517 341.119 72.2784C340.239 74.0398 339.784 76.1705 339.756 78.6705ZM418.879 116.938C414.049 116.938 409.66 115.688 405.711 113.188C401.762 110.688 398.609 106.938 396.251 101.938C393.893 96.9375 392.714 90.7301 392.714 83.3153C392.714 75.6165 393.935 69.2812 396.379 64.3097C398.822 59.3381 402.018 55.6591 405.967 53.2727C409.944 50.8864 414.219 49.6932 418.793 49.6932C422.231 49.6932 425.171 50.2898 427.614 51.483C430.058 52.6477 432.075 54.1534 433.665 56C435.256 57.8466 436.464 59.7642 437.288 61.7528H437.714V28.7273H458.552V116H437.927V105.389H437.288C436.407 107.406 435.157 109.295 433.538 111.057C431.918 112.818 429.887 114.239 427.444 115.318C425.029 116.398 422.174 116.938 418.879 116.938ZM426.123 100.702C428.651 100.702 430.81 99.9915 432.6 98.571C434.39 97.1222 435.768 95.0909 436.734 92.4773C437.7 89.8636 438.183 86.7955 438.183 83.2727C438.183 79.6932 437.7 76.6108 436.734 74.0256C435.796 71.4403 434.418 69.4517 432.6 68.0597C430.81 66.6676 428.651 65.9716 426.123 65.9716C423.538 65.9716 421.35 66.6818 419.56 68.1023C417.771 69.5227 416.407 71.5256 415.469 74.1108C414.56 76.696 414.106 79.75 414.106 83.2727C414.106 86.7955 414.575 89.8636 415.512 92.4773C416.45 95.0909 417.799 97.1222 419.56 98.571C421.35 99.9915 423.538 100.702 426.123 100.702ZM502.284 117.236C495.409 117.236 489.5 115.83 484.557 113.017C479.642 110.176 475.849 106.227 473.179 101.17C470.537 96.0852 469.216 90.1903 469.216 83.4858C469.216 76.7528 470.537 70.858 473.179 65.8011C475.849 60.7159 479.642 56.767 484.557 53.9545C489.5 51.1136 495.409 49.6932 502.284 49.6932C509.159 49.6932 515.054 51.1136 519.969 53.9545C524.912 56.767 528.705 60.7159 531.347 65.8011C534.017 70.858 535.352 76.7528 535.352 83.4858C535.352 90.1903 534.017 96.0852 531.347 101.17C528.705 106.227 524.912 110.176 519.969 113.017C515.054 115.83 509.159 117.236 502.284 117.236ZM502.412 101.511C504.912 101.511 507.028 100.744 508.761 99.2102C510.494 97.6761 511.815 95.5455 512.724 92.8182C513.662 90.0909 514.131 86.9375 514.131 83.358C514.131 79.7216 513.662 76.5398 512.724 73.8125C511.815 71.0852 510.494 68.9545 508.761 67.4205C507.028 65.8864 504.912 65.1193 502.412 65.1193C499.827 65.1193 497.639 65.8864 495.849 67.4205C494.088 68.9545 492.739 71.0852 491.801 73.8125C490.892 76.5398 490.438 79.7216 490.438 83.358C490.438 86.9375 490.892 90.0909 491.801 92.8182C492.739 95.5455 494.088 97.6761 495.849 99.2102C497.639 100.744 499.827 101.511 502.412 101.511ZM607.412 50.5455L584.955 116H561.091L538.676 50.5455H560.622L572.682 95.6307H573.364L585.466 50.5455H607.412ZM632.096 117.108C627.92 117.108 624.212 116.412 620.974 115.02C617.763 113.599 615.221 111.469 613.346 108.628C611.499 105.759 610.576 102.165 610.576 97.8466C610.576 94.2102 611.215 91.142 612.494 88.642C613.772 86.142 615.533 84.1108 617.778 82.5483C620.022 80.9858 622.607 79.8068 625.533 79.0114C628.46 78.1875 631.585 77.6335 634.908 77.3494C638.63 77.0085 641.627 76.6534 643.9 76.2841C646.173 75.8864 647.82 75.3324 648.843 74.6222C649.894 73.8835 650.42 72.8466 650.42 71.5114V71.2983C650.42 69.1108 649.667 67.4205 648.161 66.2273C646.656 65.0341 644.624 64.4375 642.067 64.4375C639.312 64.4375 637.096 65.0341 635.42 66.2273C633.744 67.4205 632.678 69.0682 632.224 71.1705L613.005 70.4886C613.573 66.5114 615.036 62.9602 617.394 59.8352C619.781 56.6818 623.048 54.2102 627.195 52.4205C631.371 50.6023 636.386 49.6932 642.238 49.6932C646.414 49.6932 650.263 50.1903 653.786 51.1847C657.309 52.1506 660.377 53.571 662.991 55.446C665.604 57.2926 667.621 59.5653 669.042 62.2642C670.491 64.9631 671.215 68.0455 671.215 71.5114V116H651.613V106.881H651.102C649.937 109.097 648.445 110.972 646.627 112.506C644.837 114.04 642.721 115.19 640.278 115.957C637.863 116.724 635.136 117.108 632.096 117.108ZM638.531 103.472C640.775 103.472 642.792 103.017 644.582 102.108C646.4 101.199 647.849 99.9489 648.928 98.358C650.008 96.7386 650.548 94.8636 650.548 92.733V86.5114C649.951 86.8239 649.227 87.108 648.374 87.3636C647.55 87.6193 646.641 87.8608 645.647 88.0881C644.653 88.3153 643.63 88.5142 642.579 88.6847C641.528 88.8551 640.519 89.0114 639.553 89.1534C637.593 89.4659 635.917 89.9489 634.525 90.6023C633.161 91.2557 632.11 92.108 631.371 93.1591C630.661 94.1818 630.306 95.4034 630.306 96.8239C630.306 98.983 631.073 100.631 632.607 101.767C634.17 102.903 636.144 103.472 638.531 103.472ZM704.795 28.7273V116H683.957V28.7273H704.795Z" fill="black"/>
<path d="M252.227 204V169.091H273.159V172.841H256.455V184.636H271.591V188.386H256.455V204H252.227ZM280.399 204V169.091H292.195C294.922 169.091 297.161 169.557 298.911 170.489C300.661 171.409 301.956 172.676 302.797 174.29C303.638 175.903 304.058 177.739 304.058 179.795C304.058 181.852 303.638 183.676 302.797 185.267C301.956 186.858 300.666 188.108 298.928 189.017C297.189 189.915 294.967 190.364 292.263 190.364H282.717V186.545H292.126C293.99 186.545 295.49 186.273 296.626 185.727C297.774 185.182 298.604 184.409 299.115 183.409C299.638 182.398 299.899 181.193 299.899 179.795C299.899 178.398 299.638 177.176 299.115 176.131C298.592 175.085 297.757 174.278 296.609 173.71C295.462 173.131 293.945 172.841 292.058 172.841H284.626V204H280.399ZM296.831 188.318L305.422 204H300.513L292.058 188.318H296.831ZM340.557 186.545C340.557 190.227 339.892 193.409 338.562 196.091C337.233 198.773 335.409 200.841 333.091 202.295C330.773 203.75 328.125 204.477 325.148 204.477C322.17 204.477 319.523 203.75 317.205 202.295C314.886 200.841 313.063 198.773 311.733 196.091C310.403 193.409 309.739 190.227 309.739 186.545C309.739 182.864 310.403 179.682 311.733 177C313.063 174.318 314.886 172.25 317.205 170.795C319.523 169.341 322.17 168.614 325.148 168.614C328.125 168.614 330.773 169.341 333.091 170.795C335.409 172.25 337.233 174.318 338.562 177C339.892 179.682 340.557 182.864 340.557 186.545ZM336.466 186.545C336.466 183.523 335.96 180.972 334.949 178.892C333.949 176.812 332.591 175.239 330.875 174.17C329.17 173.102 327.261 172.568 325.148 172.568C323.034 172.568 321.119 173.102 319.403 174.17C317.699 175.239 316.341 176.812 315.33 178.892C314.33 180.972 313.83 183.523 313.83 186.545C313.83 189.568 314.33 192.119 315.33 194.199C316.341 196.278 317.699 197.852 319.403 198.92C321.119 199.989 323.034 200.523 325.148 200.523C327.261 200.523 329.17 199.989 330.875 198.92C332.591 197.852 333.949 196.278 334.949 194.199C335.96 192.119 336.466 189.568 336.466 186.545ZM375.347 169.091V204H371.256L352.233 176.591H351.892V204H347.665V169.091H351.756L370.847 196.568H371.188V169.091H375.347ZM381.896 172.841V169.091H408.078V172.841H397.101V204H392.874V172.841H381.896ZM414.602 204V169.091H435.67V172.841H418.83V184.636H434.58V188.386H418.83V200.25H435.943V204H414.602ZM470.972 169.091V204H466.881L447.858 176.591H447.517V204H443.29V169.091H447.381L466.472 196.568H466.812V169.091H470.972ZM502.271 204.477C499.976 204.477 497.999 204.057 496.339 203.216C494.68 202.375 493.402 201.222 492.504 199.756C491.607 198.29 491.158 196.614 491.158 194.727C491.158 193.273 491.464 191.983 492.078 190.858C492.703 189.722 493.561 188.67 494.652 187.705C495.754 186.727 497.021 185.75 498.453 184.773L503.499 181.023C504.487 180.375 505.277 179.682 505.868 178.943C506.47 178.205 506.771 177.239 506.771 176.045C506.771 175.159 506.379 174.301 505.595 173.472C504.822 172.642 503.805 172.227 502.544 172.227C501.658 172.227 500.874 172.455 500.192 172.909C499.521 173.352 498.993 173.92 498.607 174.614C498.232 175.295 498.044 176 498.044 176.727C498.044 177.545 498.266 178.375 498.709 179.216C499.163 180.045 499.737 180.898 500.43 181.773C501.135 182.636 501.862 183.523 502.612 184.432L518.635 204H513.794L500.567 188.045C499.339 186.568 498.226 185.227 497.226 184.023C496.226 182.818 495.43 181.631 494.839 180.46C494.249 179.29 493.953 178.023 493.953 176.659C493.953 175.091 494.3 173.716 494.993 172.534C495.697 171.341 496.68 170.415 497.942 169.756C499.214 169.085 500.703 168.75 502.408 168.75C504.158 168.75 505.663 169.091 506.925 169.773C508.186 170.443 509.158 171.335 509.839 172.449C510.521 173.551 510.862 174.75 510.862 176.045C510.862 177.716 510.447 179.165 509.618 180.392C508.788 181.619 507.658 182.761 506.226 183.818L499.271 189C497.703 190.159 496.641 191.284 496.084 192.375C495.527 193.466 495.249 194.25 495.249 194.727C495.249 195.818 495.533 196.835 496.101 197.778C496.669 198.722 497.47 199.483 498.504 200.062C499.538 200.642 500.749 200.932 502.135 200.932C503.453 200.932 504.737 200.653 505.987 200.097C507.237 199.528 508.368 198.71 509.379 197.642C510.402 196.574 511.209 195.29 511.8 193.79C512.402 192.29 512.703 190.602 512.703 188.727H516.589C516.589 191.045 516.322 192.937 515.788 194.403C515.254 195.869 514.652 197.017 513.982 197.847C513.311 198.676 512.771 199.295 512.362 199.705C512.226 199.875 512.101 200.045 511.987 200.216C511.874 200.386 511.749 200.557 511.612 200.727C510.487 201.989 509.067 202.932 507.351 203.557C505.635 204.17 503.942 204.477 502.271 204.477ZM537.134 204V169.091H549.338C551.77 169.091 553.776 169.511 555.355 170.352C556.935 171.182 558.111 172.301 558.884 173.71C559.656 175.108 560.043 176.659 560.043 178.364C560.043 179.864 559.776 181.102 559.241 182.08C558.719 183.057 558.026 183.83 557.162 184.398C556.31 184.966 555.384 185.386 554.384 185.659V186C555.452 186.068 556.526 186.443 557.605 187.125C558.685 187.807 559.588 188.784 560.315 190.057C561.043 191.33 561.406 192.886 561.406 194.727C561.406 196.477 561.009 198.051 560.213 199.449C559.418 200.847 558.162 201.955 556.446 202.773C554.73 203.591 552.497 204 549.747 204H537.134ZM541.361 200.25H549.747C552.509 200.25 554.469 199.716 555.628 198.648C556.798 197.568 557.384 196.261 557.384 194.727C557.384 193.545 557.082 192.455 556.48 191.455C555.878 190.443 555.02 189.636 553.906 189.034C552.793 188.42 551.474 188.114 549.952 188.114H541.361V200.25ZM541.361 184.432H549.202C550.474 184.432 551.622 184.182 552.645 183.682C553.679 183.182 554.497 182.477 555.099 181.568C555.713 180.659 556.02 179.591 556.02 178.364C556.02 176.83 555.486 175.528 554.418 174.46C553.349 173.381 551.656 172.841 549.338 172.841H541.361V184.432ZM569.784 204H565.352L578.17 169.091H582.534L595.352 204H590.92L580.489 174.614H580.216L569.784 204ZM571.42 190.364H589.284V194.114H571.42V190.364ZM627.24 180H623.013C622.763 178.784 622.325 177.716 621.7 176.795C621.087 175.875 620.337 175.102 619.45 174.477C618.575 173.841 617.604 173.364 616.536 173.045C615.467 172.727 614.354 172.568 613.195 172.568C611.081 172.568 609.166 173.102 607.45 174.17C605.746 175.239 604.388 176.812 603.376 178.892C602.376 180.972 601.876 183.523 601.876 186.545C601.876 189.568 602.376 192.119 603.376 194.199C604.388 196.278 605.746 197.852 607.45 198.92C609.166 199.989 611.081 200.523 613.195 200.523C614.354 200.523 615.467 200.364 616.536 200.045C617.604 199.727 618.575 199.256 619.45 198.631C620.337 197.994 621.087 197.216 621.7 196.295C622.325 195.364 622.763 194.295 623.013 193.091H627.24C626.922 194.875 626.342 196.472 625.501 197.881C624.661 199.29 623.615 200.489 622.365 201.477C621.115 202.455 619.712 203.199 618.155 203.71C616.609 204.222 614.956 204.477 613.195 204.477C610.217 204.477 607.57 203.75 605.251 202.295C602.933 200.841 601.109 198.773 599.78 196.091C598.45 193.409 597.786 190.227 597.786 186.545C597.786 182.864 598.45 179.682 599.78 177C601.109 174.318 602.933 172.25 605.251 170.795C607.57 169.341 610.217 168.614 613.195 168.614C614.956 168.614 616.609 168.869 618.155 169.381C619.712 169.892 621.115 170.642 622.365 171.631C623.615 172.608 624.661 173.801 625.501 175.21C626.342 176.608 626.922 178.205 627.24 180ZM634.071 204V169.091H638.298V186.409H638.707L654.389 169.091H659.912L645.253 184.841L659.912 204H654.798L642.662 187.773L638.298 192.682V204H634.071ZM665.384 204V169.091H686.452V172.841H669.611V184.636H685.361V188.386H669.611V200.25H686.724V204H665.384ZM721.753 169.091V204H717.662L698.639 176.591H698.298V204H694.071V169.091H698.162L717.253 196.568H717.594V169.091H721.753ZM740.984 204H730.212V169.091H741.462C744.848 169.091 747.746 169.79 750.155 171.188C752.564 172.574 754.411 174.568 755.695 177.17C756.979 179.761 757.621 182.864 757.621 186.477C757.621 190.114 756.973 193.244 755.678 195.869C754.382 198.483 752.496 200.494 750.018 201.903C747.541 203.301 744.53 204 740.984 204ZM734.439 200.25H740.712C743.598 200.25 745.99 199.693 747.888 198.58C749.786 197.466 751.2 195.881 752.132 193.824C753.064 191.767 753.53 189.318 753.53 186.477C753.53 183.659 753.07 181.233 752.149 179.199C751.229 177.153 749.854 175.585 748.024 174.494C746.195 173.392 743.916 172.841 741.189 172.841H734.439V200.25Z" fill="#525B78"/>
<rect width="230" height="230" rx="4" fill="#D9D9D9"/>
<rect width="230" height="230" rx="4" fill="#6366F1"/>
<path d="M74.6826 135.896V52.1406H99.502V135.896C99.502 143.975 97.7311 150.92 94.1895 156.73C90.6478 162.486 85.8057 166.913 79.6631 170.012C73.5758 173.111 66.7139 174.66 59.0771 174.66C51.1637 174.66 44.1634 173.332 38.0762 170.676C31.9889 168.02 27.2021 163.952 23.7158 158.474C20.2295 152.94 18.4863 145.939 18.4863 137.473H43.4717C43.4717 141.9 44.0804 145.414 45.2979 148.015C46.5706 150.616 48.3691 152.469 50.6934 153.576C53.0176 154.683 55.8122 155.236 59.0771 155.236C62.2314 155.236 64.9707 154.489 67.2949 152.995C69.6191 151.501 71.4176 149.315 72.6904 146.438C74.0186 143.56 74.6826 140.046 74.6826 135.896ZM183.672 141.374C183.672 139.216 183.34 137.279 182.676 135.563C182.067 133.793 180.905 132.188 179.189 130.749C177.474 129.255 175.067 127.788 171.968 126.35C168.869 124.911 164.857 123.417 159.932 121.867C154.453 120.096 149.251 118.104 144.326 115.891C139.456 113.677 135.14 111.104 131.377 108.171C127.669 105.183 124.736 101.724 122.578 97.7949C120.475 93.8659 119.424 89.3005 119.424 84.0986C119.424 79.0628 120.531 74.4974 122.744 70.4023C124.958 66.252 128.057 62.7103 132.041 59.7773C136.025 56.7891 140.729 54.4925 146.152 52.8877C151.631 51.2829 157.635 50.4805 164.165 50.4805C173.075 50.4805 180.85 52.0853 187.49 55.2949C194.131 58.5046 199.277 62.904 202.93 68.4932C206.637 74.0824 208.491 80.474 208.491 87.668H183.755C183.755 84.1263 183.008 81.0273 181.514 78.3711C180.075 75.6595 177.861 73.529 174.873 71.9795C171.94 70.43 168.232 69.6553 163.75 69.6553C159.434 69.6553 155.837 70.3193 152.959 71.6475C150.081 72.9202 147.923 74.6634 146.484 76.877C145.046 79.0352 144.326 81.4701 144.326 84.1816C144.326 86.2292 144.824 88.083 145.82 89.7432C146.872 91.4033 148.421 92.9528 150.469 94.3916C152.516 95.8304 155.034 97.1862 158.022 98.459C161.011 99.7318 164.469 100.977 168.398 102.194C174.984 104.187 180.767 106.428 185.747 108.918C190.783 111.408 194.989 114.203 198.364 117.302C201.74 120.401 204.285 123.915 206.001 127.844C207.716 131.773 208.574 136.228 208.574 141.208C208.574 146.465 207.55 151.169 205.503 155.319C203.455 159.47 200.495 162.984 196.621 165.861C192.747 168.739 188.127 170.925 182.759 172.419C177.391 173.913 171.387 174.66 164.746 174.66C158.77 174.66 152.876 173.885 147.065 172.336C141.255 170.731 135.97 168.324 131.211 165.114C126.507 161.905 122.744 157.81 119.922 152.829C117.1 147.849 115.688 141.955 115.688 135.148H140.674C140.674 138.911 141.255 142.093 142.417 144.694C143.579 147.295 145.212 149.398 147.314 151.003C149.473 152.608 152.018 153.77 154.951 154.489C157.939 155.209 161.204 155.568 164.746 155.568C169.062 155.568 172.604 154.96 175.371 153.742C178.193 152.525 180.269 150.837 181.597 148.679C182.98 146.521 183.672 144.086 183.672 141.374Z" fill="white"/>
</svg>
