<svg width="808" height="223" viewBox="0 0 808 223" fill="none" xmlns="http://www.w3.org/2000/svg">
<path d="M312.778 54.892C312.494 51.767 311.23 49.3381 308.986 47.6051C306.77 45.8438 303.602 44.9631 299.483 44.9631C296.756 44.9631 294.483 45.3182 292.665 46.0284C290.847 46.7386 289.483 47.7188 288.574 48.9688C287.665 50.1903 287.196 51.5966 287.168 53.1875C287.111 54.4943 287.366 55.6449 287.935 56.6392C288.531 57.6335 289.384 58.5142 290.491 59.2812C291.628 60.0199 292.991 60.6733 294.582 61.2415C296.173 61.8097 297.963 62.3068 299.952 62.733L307.452 64.4375C311.77 65.375 315.577 66.625 318.872 68.1875C322.196 69.75 324.98 71.6108 327.224 73.7699C329.497 75.929 331.216 78.4148 332.381 81.2273C333.545 84.0398 334.142 87.1932 334.17 90.6875C334.142 96.1989 332.75 100.929 329.994 104.878C327.239 108.827 323.276 111.852 318.105 113.955C312.963 116.057 306.756 117.108 299.483 117.108C292.182 117.108 285.818 116.014 280.392 113.827C274.966 111.639 270.747 108.315 267.736 103.855C264.724 99.3949 263.176 93.7557 263.091 86.9375H283.29C283.46 89.75 284.213 92.0938 285.548 93.9688C286.884 95.8438 288.716 97.2642 291.045 98.2301C293.403 99.196 296.131 99.679 299.227 99.679C302.068 99.679 304.483 99.2955 306.472 98.5284C308.489 97.7614 310.037 96.696 311.116 95.3324C312.196 93.9687 312.75 92.4062 312.778 90.6449C312.75 88.9972 312.239 87.5909 311.244 86.4261C310.25 85.233 308.716 84.2102 306.642 83.358C304.597 82.4773 301.983 81.6676 298.801 80.929L289.682 78.7983C282.125 77.0653 276.173 74.267 271.827 70.4034C267.48 66.5114 265.321 61.2557 265.349 54.6364C265.321 49.2386 266.77 44.5085 269.696 40.446C272.622 36.3835 276.67 33.2159 281.841 30.9432C287.011 28.6705 292.906 27.5341 299.526 27.5341C306.287 27.5341 312.153 28.6847 317.125 30.9858C322.125 33.2585 326.003 36.4545 328.759 40.5739C331.514 44.6932 332.92 49.4659 332.977 54.892H312.778ZM363.276 117.108C359.099 117.108 355.392 116.412 352.153 115.02C348.943 113.599 346.401 111.469 344.526 108.628C342.679 105.759 341.756 102.165 341.756 97.8466C341.756 94.2102 342.395 91.142 343.673 88.642C344.952 86.142 346.713 84.1108 348.957 82.5483C351.202 80.9858 353.787 79.8068 356.713 79.0114C359.639 78.1875 362.764 77.6335 366.088 77.3494C369.81 77.0085 372.807 76.6534 375.08 76.2841C377.352 75.8864 379 75.3324 380.023 74.6222C381.074 73.8835 381.599 72.8466 381.599 71.5114V71.2983C381.599 69.1108 380.847 67.4205 379.341 66.2273C377.835 65.0341 375.804 64.4375 373.247 64.4375C370.491 64.4375 368.276 65.0341 366.599 66.2273C364.923 67.4205 363.858 69.0682 363.403 71.1705L344.185 70.4886C344.753 66.5114 346.216 62.9602 348.574 59.8352C350.96 56.6818 354.227 54.2102 358.375 52.4205C362.551 50.6023 367.565 49.6932 373.418 49.6932C377.594 49.6932 381.443 50.1903 384.966 51.1847C388.489 52.1506 391.557 53.571 394.17 55.446C396.784 57.2926 398.801 59.5653 400.222 62.2642C401.67 64.9631 402.395 68.0455 402.395 71.5114V116H382.793V106.881H382.281C381.116 109.097 379.625 110.972 377.807 112.506C376.017 114.04 373.901 115.19 371.457 115.957C369.043 116.724 366.315 117.108 363.276 117.108ZM369.71 103.472C371.955 103.472 373.972 103.017 375.761 102.108C377.58 101.199 379.028 99.9489 380.108 98.358C381.188 96.7386 381.727 94.8636 381.727 92.733V86.5114C381.131 86.8239 380.406 87.108 379.554 87.3636C378.73 87.6193 377.821 87.8608 376.827 88.0881C375.832 88.3153 374.81 88.5142 373.759 88.6847C372.707 88.8551 371.699 89.0114 370.733 89.1534C368.773 89.4659 367.097 89.9489 365.705 90.6023C364.341 91.2557 363.29 92.108 362.551 93.1591C361.841 94.1818 361.486 95.4034 361.486 96.8239C361.486 98.983 362.253 100.631 363.787 101.767C365.349 102.903 367.324 103.472 369.71 103.472ZM435.974 78.6705V116H415.136V50.5455H434.952V62.5625H435.676C437.125 58.5568 439.597 55.4176 443.091 53.1449C446.585 50.8438 450.747 49.6932 455.577 49.6932C460.179 49.6932 464.17 50.7301 467.551 52.804C470.96 54.8494 473.602 57.7187 475.477 61.4119C477.381 65.0767 478.318 69.3665 478.29 74.2812V116H457.452V78.3722C457.48 74.7358 456.557 71.8949 454.682 69.8494C452.835 67.804 450.264 66.7812 446.969 66.7812C444.781 66.7812 442.849 67.2642 441.173 68.2301C439.526 69.1676 438.247 70.517 437.338 72.2784C436.457 74.0398 436.003 76.1705 435.974 78.6705ZM515.097 116.938C510.268 116.938 505.879 115.688 501.93 113.188C497.981 110.688 494.827 106.938 492.469 101.938C490.112 96.9375 488.933 90.7301 488.933 83.3153C488.933 75.6165 490.154 69.2812 492.597 64.3097C495.04 59.3381 498.237 55.6591 502.185 53.2727C506.163 50.8864 510.438 49.6932 515.012 49.6932C518.45 49.6932 521.39 50.2898 523.833 51.483C526.276 52.6477 528.293 54.1534 529.884 56C531.475 57.8466 532.683 59.7642 533.506 61.7528H533.933V28.7273H554.771V116H534.146V105.389H533.506C532.626 107.406 531.376 109.295 529.756 111.057C528.137 112.818 526.106 114.239 523.663 115.318C521.248 116.398 518.393 116.938 515.097 116.938ZM522.342 100.702C524.87 100.702 527.029 99.9915 528.819 98.571C530.609 97.1222 531.987 95.0909 532.952 92.4773C533.918 89.8636 534.401 86.7955 534.401 83.2727C534.401 79.6932 533.918 76.6108 532.952 74.0256C532.015 71.4403 530.637 69.4517 528.819 68.0597C527.029 66.6676 524.87 65.9716 522.342 65.9716C519.756 65.9716 517.569 66.6818 515.779 68.1023C513.989 69.5227 512.626 71.5256 511.688 74.1108C510.779 76.696 510.325 79.75 510.325 83.2727C510.325 86.7955 510.793 89.8636 511.731 92.4773C512.668 95.0909 514.018 97.1222 515.779 98.571C517.569 99.9915 519.756 100.702 522.342 100.702ZM598.503 117.236C591.628 117.236 585.719 115.83 580.776 113.017C575.861 110.176 572.068 106.227 569.398 101.17C566.756 96.0852 565.435 90.1903 565.435 83.4858C565.435 76.7528 566.756 70.858 569.398 65.8011C572.068 60.7159 575.861 56.767 580.776 53.9545C585.719 51.1136 591.628 49.6932 598.503 49.6932C605.378 49.6932 611.273 51.1136 616.188 53.9545C621.131 56.767 624.923 60.7159 627.565 65.8011C630.236 70.858 631.571 76.7528 631.571 83.4858C631.571 90.1903 630.236 96.0852 627.565 101.17C624.923 106.227 621.131 110.176 616.188 113.017C611.273 115.83 605.378 117.236 598.503 117.236ZM598.631 101.511C601.131 101.511 603.247 100.744 604.98 99.2102C606.713 97.6761 608.034 95.5455 608.943 92.8182C609.881 90.0909 610.349 86.9375 610.349 83.358C610.349 79.7216 609.881 76.5398 608.943 73.8125C608.034 71.0852 606.713 68.9545 604.98 67.4205C603.247 65.8864 601.131 65.1193 598.631 65.1193C596.045 65.1193 593.858 65.8864 592.068 67.4205C590.307 68.9545 588.957 71.0852 588.02 73.8125C587.111 76.5398 586.656 79.7216 586.656 83.358C586.656 86.9375 587.111 90.0909 588.02 92.8182C588.957 95.5455 590.307 97.6761 592.068 99.2102C593.858 100.744 596.045 101.511 598.631 101.511ZM703.631 50.5455L681.173 116H657.31L634.895 50.5455H656.841L668.901 95.6307H669.582L681.685 50.5455H703.631ZM728.315 117.108C724.138 117.108 720.431 116.412 717.192 115.02C713.982 113.599 711.44 111.469 709.565 108.628C707.718 105.759 706.795 102.165 706.795 97.8466C706.795 94.2102 707.434 91.142 708.712 88.642C709.991 86.142 711.752 84.1108 713.996 82.5483C716.241 80.9858 718.826 79.8068 721.752 79.0114C724.678 78.1875 727.803 77.6335 731.127 77.3494C734.849 77.0085 737.846 76.6534 740.119 76.2841C742.391 75.8864 744.039 75.3324 745.062 74.6222C746.113 73.8835 746.638 72.8466 746.638 71.5114V71.2983C746.638 69.1108 745.886 67.4205 744.38 66.2273C742.874 65.0341 740.843 64.4375 738.286 64.4375C735.531 64.4375 733.315 65.0341 731.638 66.2273C729.962 67.4205 728.897 69.0682 728.442 71.1705L709.224 70.4886C709.792 66.5114 711.255 62.9602 713.613 59.8352C715.999 56.6818 719.266 54.2102 723.414 52.4205C727.59 50.6023 732.604 49.6932 738.457 49.6932C742.633 49.6932 746.482 50.1903 750.005 51.1847C753.528 52.1506 756.596 53.571 759.21 55.446C761.823 57.2926 763.84 59.5653 765.261 62.2642C766.71 64.9631 767.434 68.0455 767.434 71.5114V116H747.832V106.881H747.32C746.156 109.097 744.664 110.972 742.846 112.506C741.056 114.04 738.94 115.19 736.496 115.957C734.082 116.724 731.354 117.108 728.315 117.108ZM734.749 103.472C736.994 103.472 739.011 103.017 740.8 102.108C742.619 101.199 744.067 99.9489 745.147 98.358C746.227 96.7386 746.766 94.8636 746.766 92.733V86.5114C746.17 86.8239 745.445 87.108 744.593 87.3636C743.769 87.6193 742.86 87.8608 741.866 88.0881C740.871 88.3153 739.849 88.5142 738.798 88.6847C737.746 88.8551 736.738 89.0114 735.772 89.1534C733.812 89.4659 732.136 89.9489 730.744 90.6023C729.38 91.2557 728.329 92.108 727.59 93.1591C726.88 94.1818 726.525 95.4034 726.525 96.8239C726.525 98.983 727.292 100.631 728.826 101.767C730.388 102.903 732.363 103.472 734.749 103.472ZM801.013 28.7273V116H780.175V28.7273H801.013Z" fill="black"/>
<path d="M269.227 204V169.091H290.159V172.841H273.455V184.636H288.591V188.386H273.455V204H269.227ZM297.399 204V169.091H309.195C311.922 169.091 314.161 169.557 315.911 170.489C317.661 171.409 318.956 172.676 319.797 174.29C320.638 175.903 321.058 177.739 321.058 179.795C321.058 181.852 320.638 183.676 319.797 185.267C318.956 186.858 317.666 188.108 315.928 189.017C314.189 189.915 311.967 190.364 309.263 190.364H299.717V186.545H309.126C310.99 186.545 312.49 186.273 313.626 185.727C314.774 185.182 315.604 184.409 316.115 183.409C316.638 182.398 316.899 181.193 316.899 179.795C316.899 178.398 316.638 177.176 316.115 176.131C315.592 175.085 314.757 174.278 313.609 173.71C312.462 173.131 310.945 172.841 309.058 172.841H301.626V204H297.399ZM313.831 188.318L322.422 204H317.513L309.058 188.318H313.831ZM357.557 186.545C357.557 190.227 356.892 193.409 355.562 196.091C354.233 198.773 352.409 200.841 350.091 202.295C347.773 203.75 345.125 204.477 342.148 204.477C339.17 204.477 336.523 203.75 334.205 202.295C331.886 200.841 330.063 198.773 328.733 196.091C327.403 193.409 326.739 190.227 326.739 186.545C326.739 182.864 327.403 179.682 328.733 177C330.063 174.318 331.886 172.25 334.205 170.795C336.523 169.341 339.17 168.614 342.148 168.614C345.125 168.614 347.773 169.341 350.091 170.795C352.409 172.25 354.233 174.318 355.562 177C356.892 179.682 357.557 182.864 357.557 186.545ZM353.466 186.545C353.466 183.523 352.96 180.972 351.949 178.892C350.949 176.812 349.591 175.239 347.875 174.17C346.17 173.102 344.261 172.568 342.148 172.568C340.034 172.568 338.119 173.102 336.403 174.17C334.699 175.239 333.341 176.812 332.33 178.892C331.33 180.972 330.83 183.523 330.83 186.545C330.83 189.568 331.33 192.119 332.33 194.199C333.341 196.278 334.699 197.852 336.403 198.92C338.119 199.989 340.034 200.523 342.148 200.523C344.261 200.523 346.17 199.989 347.875 198.92C349.591 197.852 350.949 196.278 351.949 194.199C352.96 192.119 353.466 189.568 353.466 186.545ZM392.347 169.091V204H388.256L369.233 176.591H368.892V204H364.665V169.091H368.756L387.847 196.568H388.188V169.091H392.347ZM398.896 172.841V169.091H425.078V172.841H414.101V204H409.874V172.841H398.896ZM431.602 204V169.091H452.67V172.841H435.83V184.636H451.58V188.386H435.83V200.25H452.943V204H431.602ZM487.972 169.091V204H483.881L464.858 176.591H464.517V204H460.29V169.091H464.381L483.472 196.568H483.812V169.091H487.972ZM519.271 204.477C516.976 204.477 514.999 204.057 513.339 203.216C511.68 202.375 510.402 201.222 509.504 199.756C508.607 198.29 508.158 196.614 508.158 194.727C508.158 193.273 508.464 191.983 509.078 190.858C509.703 189.722 510.561 188.67 511.652 187.705C512.754 186.727 514.021 185.75 515.453 184.773L520.499 181.023C521.487 180.375 522.277 179.682 522.868 178.943C523.47 178.205 523.771 177.239 523.771 176.045C523.771 175.159 523.379 174.301 522.595 173.472C521.822 172.642 520.805 172.227 519.544 172.227C518.658 172.227 517.874 172.455 517.192 172.909C516.521 173.352 515.993 173.92 515.607 174.614C515.232 175.295 515.044 176 515.044 176.727C515.044 177.545 515.266 178.375 515.709 179.216C516.163 180.045 516.737 180.898 517.43 181.773C518.135 182.636 518.862 183.523 519.612 184.432L535.635 204H530.794L517.567 188.045C516.339 186.568 515.226 185.227 514.226 184.023C513.226 182.818 512.43 181.631 511.839 180.46C511.249 179.29 510.953 178.023 510.953 176.659C510.953 175.091 511.3 173.716 511.993 172.534C512.697 171.341 513.68 170.415 514.942 169.756C516.214 169.085 517.703 168.75 519.408 168.75C521.158 168.75 522.663 169.091 523.925 169.773C525.186 170.443 526.158 171.335 526.839 172.449C527.521 173.551 527.862 174.75 527.862 176.045C527.862 177.716 527.447 179.165 526.618 180.392C525.788 181.619 524.658 182.761 523.226 183.818L516.271 189C514.703 190.159 513.641 191.284 513.084 192.375C512.527 193.466 512.249 194.25 512.249 194.727C512.249 195.818 512.533 196.835 513.101 197.778C513.669 198.722 514.47 199.483 515.504 200.062C516.538 200.642 517.749 200.932 519.135 200.932C520.453 200.932 521.737 200.653 522.987 200.097C524.237 199.528 525.368 198.71 526.379 197.642C527.402 196.574 528.209 195.29 528.8 193.79C529.402 192.29 529.703 190.602 529.703 188.727H533.589C533.589 191.045 533.322 192.937 532.788 194.403C532.254 195.869 531.652 197.017 530.982 197.847C530.311 198.676 529.771 199.295 529.362 199.705C529.226 199.875 529.101 200.045 528.987 200.216C528.874 200.386 528.749 200.557 528.612 200.727C527.487 201.989 526.067 202.932 524.351 203.557C522.635 204.17 520.942 204.477 519.271 204.477ZM554.134 204V169.091H566.338C568.77 169.091 570.776 169.511 572.355 170.352C573.935 171.182 575.111 172.301 575.884 173.71C576.656 175.108 577.043 176.659 577.043 178.364C577.043 179.864 576.776 181.102 576.241 182.08C575.719 183.057 575.026 183.83 574.162 184.398C573.31 184.966 572.384 185.386 571.384 185.659V186C572.452 186.068 573.526 186.443 574.605 187.125C575.685 187.807 576.588 188.784 577.315 190.057C578.043 191.33 578.406 192.886 578.406 194.727C578.406 196.477 578.009 198.051 577.213 199.449C576.418 200.847 575.162 201.955 573.446 202.773C571.73 203.591 569.497 204 566.747 204H554.134ZM558.361 200.25H566.747C569.509 200.25 571.469 199.716 572.628 198.648C573.798 197.568 574.384 196.261 574.384 194.727C574.384 193.545 574.082 192.455 573.48 191.455C572.878 190.443 572.02 189.636 570.906 189.034C569.793 188.42 568.474 188.114 566.952 188.114H558.361V200.25ZM558.361 184.432H566.202C567.474 184.432 568.622 184.182 569.645 183.682C570.679 183.182 571.497 182.477 572.099 181.568C572.713 180.659 573.02 179.591 573.02 178.364C573.02 176.83 572.486 175.528 571.418 174.46C570.349 173.381 568.656 172.841 566.338 172.841H558.361V184.432ZM586.784 204H582.352L595.17 169.091H599.534L612.352 204H607.92L597.489 174.614H597.216L586.784 204ZM588.42 190.364H606.284V194.114H588.42V190.364ZM644.24 180H640.013C639.763 178.784 639.325 177.716 638.7 176.795C638.087 175.875 637.337 175.102 636.45 174.477C635.575 173.841 634.604 173.364 633.536 173.045C632.467 172.727 631.354 172.568 630.195 172.568C628.081 172.568 626.166 173.102 624.45 174.17C622.746 175.239 621.388 176.812 620.376 178.892C619.376 180.972 618.876 183.523 618.876 186.545C618.876 189.568 619.376 192.119 620.376 194.199C621.388 196.278 622.746 197.852 624.45 198.92C626.166 199.989 628.081 200.523 630.195 200.523C631.354 200.523 632.467 200.364 633.536 200.045C634.604 199.727 635.575 199.256 636.45 198.631C637.337 197.994 638.087 197.216 638.7 196.295C639.325 195.364 639.763 194.295 640.013 193.091H644.24C643.922 194.875 643.342 196.472 642.501 197.881C641.661 199.29 640.615 200.489 639.365 201.477C638.115 202.455 636.712 203.199 635.155 203.71C633.609 204.222 631.956 204.477 630.195 204.477C627.217 204.477 624.57 203.75 622.251 202.295C619.933 200.841 618.109 198.773 616.78 196.091C615.45 193.409 614.786 190.227 614.786 186.545C614.786 182.864 615.45 179.682 616.78 177C618.109 174.318 619.933 172.25 622.251 170.795C624.57 169.341 627.217 168.614 630.195 168.614C631.956 168.614 633.609 168.869 635.155 169.381C636.712 169.892 638.115 170.642 639.365 171.631C640.615 172.608 641.661 173.801 642.501 175.21C643.342 176.608 643.922 178.205 644.24 180ZM651.071 204V169.091H655.298V186.409H655.707L671.389 169.091H676.912L662.253 184.841L676.912 204H671.798L659.662 187.773L655.298 192.682V204H651.071ZM682.384 204V169.091H703.452V172.841H686.611V184.636H702.361V188.386H686.611V200.25H703.724V204H682.384ZM738.753 169.091V204H734.662L715.639 176.591H715.298V204H711.071V169.091H715.162L734.253 196.568H734.594V169.091H738.753ZM757.984 204H747.212V169.091H758.462C761.848 169.091 764.746 169.79 767.155 171.188C769.564 172.574 771.411 174.568 772.695 177.17C773.979 179.761 774.621 182.864 774.621 186.477C774.621 190.114 773.973 193.244 772.678 195.869C771.382 198.483 769.496 200.494 767.018 201.903C764.541 203.301 761.53 204 757.984 204ZM751.439 200.25H757.712C760.598 200.25 762.99 199.693 764.888 198.58C766.786 197.466 768.2 195.881 769.132 193.824C770.064 191.767 770.53 189.318 770.53 186.477C770.53 183.659 770.07 181.233 769.149 179.199C768.229 177.153 766.854 175.585 765.024 174.494C763.195 173.392 760.916 172.841 758.189 172.841H751.439V200.25Z" fill="#525B78"/>
<rect y="28" width="195" height="195" rx="16" fill="#D9D9D9"/>
<rect y="28" width="195" height="195" rx="16" fill="#6366F1"/>
<path d="M69.1289 140.809V81.6875H86.6484V140.809C86.6484 146.512 85.3984 151.414 82.8984 155.516C80.3984 159.578 76.9805 162.703 72.6445 164.891C68.3477 167.078 63.5039 168.172 58.1133 168.172C52.5273 168.172 47.5859 167.234 43.2891 165.359C38.9922 163.484 35.6133 160.613 33.1523 156.746C30.6914 152.84 29.4609 147.898 29.4609 141.922H47.0977C47.0977 145.047 47.5273 147.527 48.3867 149.363C49.2852 151.199 50.5547 152.508 52.1953 153.289C53.8359 154.07 55.8086 154.461 58.1133 154.461C60.3398 154.461 62.2734 153.934 63.9141 152.879C65.5547 151.824 66.8242 150.281 67.7227 148.25C68.6602 146.219 69.1289 143.738 69.1289 140.809ZM127.84 167H109.266L109.383 153.289H127.84C132.449 153.289 136.336 152.254 139.5 150.184C142.664 148.074 145.047 145.008 146.648 140.984C148.289 136.961 149.109 132.098 149.109 126.395V122.234C149.109 117.859 148.641 114.012 147.703 110.691C146.805 107.371 145.457 104.578 143.66 102.312C141.863 100.047 139.656 98.3477 137.039 97.2148C134.422 96.043 131.414 95.457 128.016 95.457H108.914V81.6875H128.016C133.719 81.6875 138.934 82.6641 143.66 84.6172C148.426 86.5312 152.547 89.2852 156.023 92.8789C159.5 96.4727 162.176 100.77 164.051 105.77C165.965 110.73 166.922 116.258 166.922 122.352V126.395C166.922 132.449 165.965 137.977 164.051 142.977C162.176 147.977 159.5 152.273 156.023 155.867C152.586 159.422 148.465 162.176 143.66 164.129C138.895 166.043 133.621 167 127.84 167ZM119.227 81.6875V167H101.648V81.6875H119.227Z" fill="white"/>
</svg>
