<svg width="519" height="216" viewBox="0 0 519 216" fill="none" xmlns="http://www.w3.org/2000/svg">
<path d="M38.5227 116H7.58523V28.7273H38.7784C47.5568 28.7273 55.1136 30.4744 61.4489 33.9688C67.7841 37.4347 72.6563 42.4205 76.0653 48.9261C79.5028 55.4318 81.2216 63.2159 81.2216 72.2784C81.2216 81.3693 79.5028 89.1818 76.0653 95.7159C72.6563 102.25 67.7557 107.264 61.3636 110.759C55 114.253 47.3864 116 38.5227 116ZM26.0369 100.19H37.7557C43.2102 100.19 47.7983 99.2244 51.5199 97.2926C55.2699 95.3324 58.0824 92.3068 59.9574 88.2159C61.8608 84.0966 62.8125 78.7841 62.8125 72.2784C62.8125 65.8295 61.8608 60.5597 59.9574 56.4688C58.0824 52.3778 55.2841 49.3665 51.5625 47.4347C47.8409 45.5028 43.2528 44.5369 37.7983 44.5369H26.0369V100.19ZM113.214 117.236C109.038 117.236 105.316 116.511 102.049 115.062C98.782 113.585 96.1967 111.412 94.2933 108.543C92.4183 105.645 91.4808 102.037 91.4808 97.7188C91.4808 94.0824 92.1484 91.0284 93.4837 88.5568C94.8189 86.0852 96.6371 84.0966 98.9382 82.5909C101.239 81.0852 103.853 79.9489 106.779 79.1818C109.734 78.4148 112.83 77.875 116.069 77.5625C119.876 77.1648 122.944 76.7955 125.273 76.4545C127.603 76.0852 129.293 75.5455 130.344 74.8352C131.396 74.125 131.921 73.0739 131.921 71.6818V71.4261C131.921 68.7273 131.069 66.6392 129.364 65.1619C127.688 63.6847 125.302 62.946 122.205 62.946C118.938 62.946 116.339 63.6705 114.407 65.1193C112.475 66.5398 111.197 68.3295 110.572 70.4886L93.782 69.125C94.6342 65.1477 96.3104 61.7102 98.8104 58.8125C101.31 55.8864 104.535 53.642 108.484 52.0795C112.461 50.4886 117.063 49.6932 122.29 49.6932C125.927 49.6932 129.407 50.1193 132.731 50.9716C136.083 51.8239 139.052 53.1449 141.637 54.9347C144.251 56.7244 146.31 59.0256 147.816 61.8381C149.322 64.6222 150.075 67.9602 150.075 71.8523V116H132.859V106.923H132.347C131.296 108.969 129.89 110.773 128.129 112.335C126.367 113.869 124.251 115.077 121.779 115.957C119.308 116.81 116.452 117.236 113.214 117.236ZM118.413 104.707C121.083 104.707 123.441 104.182 125.487 103.131C127.532 102.051 129.137 100.602 130.302 98.7841C131.467 96.9659 132.049 94.9062 132.049 92.6051V85.6591C131.481 86.0284 130.7 86.3693 129.705 86.6818C128.739 86.9659 127.646 87.2358 126.424 87.4915C125.202 87.7187 123.981 87.9318 122.759 88.1307C121.538 88.3011 120.43 88.4574 119.435 88.5994C117.305 88.9119 115.444 89.4091 113.853 90.0909C112.262 90.7727 111.026 91.696 110.146 92.8608C109.265 93.9972 108.825 95.4176 108.825 97.1222C108.825 99.5938 109.719 101.483 111.509 102.79C113.327 104.068 115.629 104.707 118.413 104.707ZM222.837 50.5455L199.954 116H179.499L156.616 50.5455H175.792L189.386 97.3778H190.067L203.619 50.5455H222.837ZM232.127 116V50.5455H250.281V116H232.127ZM241.246 42.108C238.548 42.108 236.232 41.2131 234.3 39.4233C232.397 37.6051 231.445 35.4318 231.445 32.9034C231.445 30.4034 232.397 28.2585 234.3 26.4688C236.232 24.6506 238.548 23.7415 241.246 23.7415C243.945 23.7415 246.246 24.6506 248.15 26.4688C250.082 28.2585 251.048 30.4034 251.048 32.9034C251.048 35.4318 250.082 37.6051 248.15 39.4233C246.246 41.2131 243.945 42.108 241.246 42.108ZM288.942 117.065C283.97 117.065 279.467 115.787 275.433 113.23C271.428 110.645 268.246 106.852 265.888 101.852C263.558 96.8239 262.393 90.6591 262.393 83.358C262.393 75.858 263.601 69.6222 266.016 64.6506C268.43 59.6506 271.641 55.9148 275.646 53.4432C279.68 50.9432 284.098 49.6932 288.899 49.6932C292.564 49.6932 295.618 50.3182 298.061 51.5682C300.533 52.7898 302.521 54.3239 304.027 56.1705C305.561 57.9886 306.726 59.7784 307.521 61.5398H308.075V28.7273H326.186V116H308.288V105.517H307.521C306.669 107.335 305.462 109.139 303.899 110.929C302.365 112.69 300.362 114.153 297.891 115.318C295.447 116.483 292.464 117.065 288.942 117.065ZM294.695 102.619C297.621 102.619 300.092 101.824 302.109 100.233C304.155 98.6136 305.717 96.3551 306.797 93.4574C307.905 90.5597 308.459 87.1648 308.459 83.2727C308.459 79.3807 307.919 76 306.839 73.1307C305.76 70.2614 304.197 68.0455 302.152 66.483C300.107 64.9205 297.621 64.1392 294.695 64.1392C291.712 64.1392 289.197 64.9489 287.152 66.5682C285.107 68.1875 283.558 70.4318 282.507 73.3011C281.456 76.1705 280.93 79.4943 280.93 83.2727C280.93 87.0795 281.456 90.446 282.507 93.3722C283.587 96.2699 285.135 98.5426 287.152 100.19C289.197 101.81 291.712 102.619 294.695 102.619Z" fill="black"/>
<path d="M10.2273 204V169.091H31.1591V172.841H14.4545V184.636H29.5909V188.386H14.4545V204H10.2273ZM38.3991 204V169.091H50.1946C52.9219 169.091 55.1605 169.557 56.9105 170.489C58.6605 171.409 59.956 172.676 60.7969 174.29C61.6378 175.903 62.0582 177.739 62.0582 179.795C62.0582 181.852 61.6378 183.676 60.7969 185.267C59.956 186.858 58.6662 188.108 56.9276 189.017C55.1889 189.915 52.9673 190.364 50.2628 190.364H40.7173V186.545H50.1264C51.9901 186.545 53.4901 186.273 54.6264 185.727C55.7741 185.182 56.6037 184.409 57.1151 183.409C57.6378 182.398 57.8991 181.193 57.8991 179.795C57.8991 178.398 57.6378 177.176 57.1151 176.131C56.5923 175.085 55.7571 174.278 54.6094 173.71C53.4616 173.131 51.9446 172.841 50.0582 172.841H42.6264V204H38.3991ZM54.831 188.318L63.4219 204H58.5128L50.0582 188.318H54.831ZM98.5568 186.545C98.5568 190.227 97.892 193.409 96.5625 196.091C95.233 198.773 93.4091 200.841 91.0909 202.295C88.7727 203.75 86.125 204.477 83.1477 204.477C80.1705 204.477 77.5227 203.75 75.2045 202.295C72.8864 200.841 71.0625 198.773 69.733 196.091C68.4034 193.409 67.7386 190.227 67.7386 186.545C67.7386 182.864 68.4034 179.682 69.733 177C71.0625 174.318 72.8864 172.25 75.2045 170.795C77.5227 169.341 80.1705 168.614 83.1477 168.614C86.125 168.614 88.7727 169.341 91.0909 170.795C93.4091 172.25 95.233 174.318 96.5625 177C97.892 179.682 98.5568 182.864 98.5568 186.545ZM94.4659 186.545C94.4659 183.523 93.9602 180.972 92.9489 178.892C91.9489 176.812 90.5909 175.239 88.875 174.17C87.1705 173.102 85.2614 172.568 83.1477 172.568C81.0341 172.568 79.1193 173.102 77.4034 174.17C75.6989 175.239 74.3409 176.812 73.3295 178.892C72.3295 180.972 71.8295 183.523 71.8295 186.545C71.8295 189.568 72.3295 192.119 73.3295 194.199C74.3409 196.278 75.6989 197.852 77.4034 198.92C79.1193 199.989 81.0341 200.523 83.1477 200.523C85.2614 200.523 87.1705 199.989 88.875 198.92C90.5909 197.852 91.9489 196.278 92.9489 194.199C93.9602 192.119 94.4659 189.568 94.4659 186.545ZM133.347 169.091V204H129.256L110.233 176.591H109.892V204H105.665V169.091H109.756L128.847 196.568H129.188V169.091H133.347ZM139.896 172.841V169.091H166.078V172.841H155.101V204H150.874V172.841H139.896ZM172.602 204V169.091H193.67V172.841H176.83V184.636H192.58V188.386H176.83V200.25H193.943V204H172.602ZM228.972 169.091V204H224.881L205.858 176.591H205.517V204H201.29V169.091H205.381L224.472 196.568H224.812V169.091H228.972ZM260.271 204.477C257.976 204.477 255.999 204.057 254.339 203.216C252.68 202.375 251.402 201.222 250.504 199.756C249.607 198.29 249.158 196.614 249.158 194.727C249.158 193.273 249.464 191.983 250.078 190.858C250.703 189.722 251.561 188.67 252.652 187.705C253.754 186.727 255.021 185.75 256.453 184.773L261.499 181.023C262.487 180.375 263.277 179.682 263.868 178.943C264.47 178.205 264.771 177.239 264.771 176.045C264.771 175.159 264.379 174.301 263.595 173.472C262.822 172.642 261.805 172.227 260.544 172.227C259.658 172.227 258.874 172.455 258.192 172.909C257.521 173.352 256.993 173.92 256.607 174.614C256.232 175.295 256.044 176 256.044 176.727C256.044 177.545 256.266 178.375 256.709 179.216C257.163 180.045 257.737 180.898 258.43 181.773C259.135 182.636 259.862 183.523 260.612 184.432L276.635 204H271.794L258.567 188.045C257.339 186.568 256.226 185.227 255.226 184.023C254.226 182.818 253.43 181.631 252.839 180.46C252.249 179.29 251.953 178.023 251.953 176.659C251.953 175.091 252.3 173.716 252.993 172.534C253.697 171.341 254.68 170.415 255.942 169.756C257.214 169.085 258.703 168.75 260.408 168.75C262.158 168.75 263.663 169.091 264.925 169.773C266.186 170.443 267.158 171.335 267.839 172.449C268.521 173.551 268.862 174.75 268.862 176.045C268.862 177.716 268.447 179.165 267.618 180.392C266.788 181.619 265.658 182.761 264.226 183.818L257.271 189C255.703 190.159 254.641 191.284 254.084 192.375C253.527 193.466 253.249 194.25 253.249 194.727C253.249 195.818 253.533 196.835 254.101 197.778C254.669 198.722 255.47 199.483 256.504 200.062C257.538 200.642 258.749 200.932 260.135 200.932C261.453 200.932 262.737 200.653 263.987 200.097C265.237 199.528 266.368 198.71 267.379 197.642C268.402 196.574 269.209 195.29 269.8 193.79C270.402 192.29 270.703 190.602 270.703 188.727H274.589C274.589 191.045 274.322 192.937 273.788 194.403C273.254 195.869 272.652 197.017 271.982 197.847C271.311 198.676 270.771 199.295 270.362 199.705C270.226 199.875 270.101 200.045 269.987 200.216C269.874 200.386 269.749 200.557 269.612 200.727C268.487 201.989 267.067 202.932 265.351 203.557C263.635 204.17 261.942 204.477 260.271 204.477ZM295.134 204V169.091H307.338C309.77 169.091 311.776 169.511 313.355 170.352C314.935 171.182 316.111 172.301 316.884 173.71C317.656 175.108 318.043 176.659 318.043 178.364C318.043 179.864 317.776 181.102 317.241 182.08C316.719 183.057 316.026 183.83 315.162 184.398C314.31 184.966 313.384 185.386 312.384 185.659V186C313.452 186.068 314.526 186.443 315.605 187.125C316.685 187.807 317.588 188.784 318.315 190.057C319.043 191.33 319.406 192.886 319.406 194.727C319.406 196.477 319.009 198.051 318.213 199.449C317.418 200.847 316.162 201.955 314.446 202.773C312.73 203.591 310.497 204 307.747 204H295.134ZM299.361 200.25H307.747C310.509 200.25 312.469 199.716 313.628 198.648C314.798 197.568 315.384 196.261 315.384 194.727C315.384 193.545 315.082 192.455 314.48 191.455C313.878 190.443 313.02 189.636 311.906 189.034C310.793 188.42 309.474 188.114 307.952 188.114H299.361V200.25ZM299.361 184.432H307.202C308.474 184.432 309.622 184.182 310.645 183.682C311.679 183.182 312.497 182.477 313.099 181.568C313.713 180.659 314.02 179.591 314.02 178.364C314.02 176.83 313.486 175.528 312.418 174.46C311.349 173.381 309.656 172.841 307.338 172.841H299.361V184.432ZM327.784 204H323.352L336.17 169.091H340.534L353.352 204H348.92L338.489 174.614H338.216L327.784 204ZM329.42 190.364H347.284V194.114H329.42V190.364ZM385.24 180H381.013C380.763 178.784 380.325 177.716 379.7 176.795C379.087 175.875 378.337 175.102 377.45 174.477C376.575 173.841 375.604 173.364 374.536 173.045C373.467 172.727 372.354 172.568 371.195 172.568C369.081 172.568 367.166 173.102 365.45 174.17C363.746 175.239 362.388 176.812 361.376 178.892C360.376 180.972 359.876 183.523 359.876 186.545C359.876 189.568 360.376 192.119 361.376 194.199C362.388 196.278 363.746 197.852 365.45 198.92C367.166 199.989 369.081 200.523 371.195 200.523C372.354 200.523 373.467 200.364 374.536 200.045C375.604 199.727 376.575 199.256 377.45 198.631C378.337 197.994 379.087 197.216 379.7 196.295C380.325 195.364 380.763 194.295 381.013 193.091H385.24C384.922 194.875 384.342 196.472 383.501 197.881C382.661 199.29 381.615 200.489 380.365 201.477C379.115 202.455 377.712 203.199 376.155 203.71C374.609 204.222 372.956 204.477 371.195 204.477C368.217 204.477 365.57 203.75 363.251 202.295C360.933 200.841 359.109 198.773 357.78 196.091C356.45 193.409 355.786 190.227 355.786 186.545C355.786 182.864 356.45 179.682 357.78 177C359.109 174.318 360.933 172.25 363.251 170.795C365.57 169.341 368.217 168.614 371.195 168.614C372.956 168.614 374.609 168.869 376.155 169.381C377.712 169.892 379.115 170.642 380.365 171.631C381.615 172.608 382.661 173.801 383.501 175.21C384.342 176.608 384.922 178.205 385.24 180ZM392.071 204V169.091H396.298V186.409H396.707L412.389 169.091H417.912L403.253 184.841L417.912 204H412.798L400.662 187.773L396.298 192.682V204H392.071ZM423.384 204V169.091H444.452V172.841H427.611V184.636H443.361V188.386H427.611V200.25H444.724V204H423.384ZM479.753 169.091V204H475.662L456.639 176.591H456.298V204H452.071V169.091H456.162L475.253 196.568H475.594V169.091H479.753ZM498.984 204H488.212V169.091H499.462C502.848 169.091 505.746 169.79 508.155 171.188C510.564 172.574 512.411 174.568 513.695 177.17C514.979 179.761 515.621 182.864 515.621 186.477C515.621 190.114 514.973 193.244 513.678 195.869C512.382 198.483 510.496 200.494 508.018 201.903C505.541 203.301 502.53 204 498.984 204ZM492.439 200.25H498.712C501.598 200.25 503.99 199.693 505.888 198.58C507.786 197.466 509.2 195.881 510.132 193.824C511.064 191.767 511.53 189.318 511.53 186.477C511.53 183.659 511.07 181.233 510.149 179.199C509.229 177.153 507.854 175.585 506.024 174.494C504.195 173.392 501.916 172.841 499.189 172.841H492.439V200.25Z" fill="#525B78"/>
</svg>
