<svg width="100" height="100" viewBox="0 0 100 100" fill="none" xmlns="http://www.w3.org/2000/svg">
<path d="M79 17H21L26.1176 75.4846L50 82.3651L73.8824 75.4846L79 17Z" fill="#E65100"/>
<path d="M50.4603 21.6032V76.8413L69.2762 71.3001L73.4762 21.6032H50.4603Z" fill="#FF6D00"/>
<path d="M50.4603 51.3051V44.4732H65.0904L63.8996 64.1148L50.4603 68.5555V61.3821L57.4351 58.9909L57.9455 51.3051H50.4603ZM65.6008 37.6414L66.1111 30.8095H50.4603V37.6414H65.6008Z" fill="white"/>
<path d="M50.4603 61.3821V68.5555L36.8734 64.1148L36.1854 54.721H43.0649L43.4088 58.9909L50.4603 61.3821ZM42.033 37.6414H50.4603V30.8095H34.8095L36.0134 51.3051H50.4603V44.4732H42.5489L42.033 37.6414Z" fill="#EEEEEE"/>
</svg>
