<svg width="100" height="100" viewBox="0 0 100 100" fill="none" xmlns="http://www.w3.org/2000/svg">
<path d="M20 20H80V80H20V20Z" fill="#F0DB4F"/>
<path d="M75.0893 65.6901C74.6502 62.9525 72.865 60.654 67.5779 58.5095C65.7414 57.6654 63.6939 57.0609 63.0836 55.6692C62.8669 54.8593 62.8384 54.4031 62.9753 53.9126C63.3688 52.3213 65.2681 51.8251 66.7738 52.2814C67.7433 52.6065 68.6616 53.3537 69.2148 54.5456C71.8042 52.8689 71.7985 52.8802 73.6065 51.7282C72.9449 50.7016 72.5912 50.2282 72.1578 49.789C70.6008 48.0495 68.4791 47.1541 65.0855 47.2225C64.4981 47.2967 63.905 47.3764 63.3175 47.4506C61.6236 47.8784 60.0095 48.7681 59.0627 49.9602C56.2224 53.1826 57.0323 58.8232 60.4886 61.1446C63.8935 63.6997 68.8954 64.2814 69.5342 66.6712C70.1559 69.597 67.3841 70.5437 64.6293 70.2073C62.5989 69.7852 61.4696 68.7529 60.249 66.8765C58.002 68.1769 58.002 68.1769 55.6921 69.5058C56.2396 70.7035 56.8156 71.2453 57.7339 72.2833C62.0799 76.6921 72.9563 76.4754 74.9069 69.8024C74.9867 69.5742 75.5115 68.0456 75.0893 65.6901ZM52.6179 47.5761H47.0057C47.0057 52.424 46.9829 57.2377 46.9829 62.0856C46.9829 65.1711 47.1426 68 46.6407 68.8669C45.8194 70.5722 43.6921 70.3612 42.7225 70.0304C41.7358 69.5456 41.2339 68.8555 40.6521 67.8802C40.4924 67.6008 40.3727 67.384 40.3327 67.3669C38.8099 68.2966 37.2928 69.2319 35.77 70.1616C36.5286 71.7186 37.6464 73.0704 39.0779 73.9486C41.2167 75.2319 44.0913 75.6254 47.097 74.9353C49.0533 74.365 50.7414 73.1844 51.6255 71.3878C52.903 69.0323 52.6293 66.1806 52.6179 63.0266C52.6464 57.8821 52.6179 52.7377 52.6179 47.5761Z" fill="#323330"/>
</svg>
