<svg width="100" height="100" viewBox="0 0 100 100" fill="none" xmlns="http://www.w3.org/2000/svg">
<path d="M50 11L17 30.5395V69.6184L50 89.1579L83 69.6184V30.5395L50 11Z" fill="#ECEFF1"/>
<path d="M49.1316 51.0094V68.3158L32.6316 59.6626V41.3947L49.1316 51.0094Z" fill="#0277BD"/>
<path d="M50.8684 51.0094V68.3158L67.3684 59.6626V41.3947L50.8684 51.0094Z" fill="#0277BD"/>
<path d="M50 49.2105L33.5 39.1551L50 30.1053L66.5 39.1551L50 49.2105Z" fill="#0277BD"/>
<path d="M49.205 16.6511V28.362L31.6387 38.1211L21.8796 32.2657L49.205 16.6511Z" fill="#81D4FA"/>
<path d="M49.205 83.013V71.3021L31.6387 61.543L21.8796 67.3984L49.205 83.013Z" fill="#81D4FA"/>
<path d="M30.6628 40.073L20.9037 34.2175V65.4466L30.6628 59.5911V40.073Z" fill="#81D4FA"/>
<path d="M51.1568 16.6511V28.362L68.7232 38.1211L78.4823 32.2657L51.1568 16.6511Z" fill="#81D4FA"/>
<path d="M51.1568 83.013V71.3021L68.7232 61.543L78.4823 67.3984L51.1568 83.013Z" fill="#81D4FA"/>
<path d="M69.6991 40.073L79.4582 34.2175V65.4466L69.6991 59.5911V40.073Z" fill="#81D4FA"/>
</svg>
