<svg width="100" height="100" viewBox="0 0 100 100" fill="none" xmlns="http://www.w3.org/2000/svg">
<path fill-rule="evenodd" clip-rule="evenodd" d="M28.5777 20C24.2983 20 21.1318 23.7615 21.2736 27.8408C21.4097 31.7599 21.2329 36.8358 19.9605 40.9751C18.6836 45.126 16.5256 47.7565 13 48.0941V51.9059C16.5256 52.2443 18.6836 54.8734 19.9604 59.0249C21.2329 63.1642 21.4095 68.24 21.2734 72.1591C21.1316 76.2379 24.2982 80 28.5783 80H72.428C76.7074 80 79.8733 76.2384 79.7315 72.1591C79.5955 68.24 79.7723 63.1642 81.0446 59.0249C82.3215 54.8734 84.4743 52.2432 88 51.9059V48.0941C84.4744 47.7557 82.3217 45.1266 81.0446 40.9751C79.7721 36.8363 79.5955 31.7599 79.7315 27.8408C79.8733 23.7621 76.7074 20 72.428 20H28.5771H28.5777ZM63.8475 56.9339C63.8475 62.5509 59.6755 65.9575 52.7519 65.9575H40.9661C40.6289 65.9575 40.3056 65.823 40.0672 65.5836C39.8288 65.3442 39.6949 65.0195 39.6949 64.6809V35.3192C39.6949 34.9806 39.8288 34.6559 40.0672 34.4165C40.3056 34.1771 40.6289 34.0426 40.9661 34.0426H52.6848C58.4579 34.0426 62.2467 37.1831 62.2467 42.0047C62.2467 45.3889 59.6979 48.4186 56.4508 48.9494V49.1259C60.8711 49.6128 63.8475 52.6874 63.8475 56.9339ZM51.4668 38.0894H44.7467V47.622H50.4067C54.7822 47.622 57.1948 45.8526 57.1948 42.6899C57.1943 39.726 55.1201 38.0894 51.4668 38.0894ZM44.7467 51.4043V61.9094H51.7141C56.2697 61.9094 58.6828 60.0737 58.6828 56.6237C58.6828 53.1737 56.202 51.4037 51.4211 51.4037H44.7467V51.4043Z" fill="#7952B3"/>
</svg>
