<svg width="49" height="48" viewBox="0 0 49 48" fill="none" xmlns="http://www.w3.org/2000/svg">
<path fill-rule="evenodd" clip-rule="evenodd" d="M2.5 5.67601C2.5 4.70107 2.88729 3.76606 3.57668 3.07668C4.26606 2.3873 5.20106 2 6.176 2H42.82C43.3031 1.99922 43.7817 2.09373 44.2283 2.27814C44.6749 2.46255 45.0807 2.73322 45.4225 3.07468C45.7643 3.41613 46.0354 3.82165 46.2203 4.26802C46.4052 4.7144 46.5003 5.19286 46.5 5.67601V42.32C46.5005 42.8032 46.4058 43.2819 46.2211 43.7284C46.0365 44.175 45.7656 44.5808 45.424 44.9226C45.0824 45.2644 44.6768 45.5355 44.2303 45.7204C43.7838 45.9052 43.3052 46.0003 42.822 46H6.176C5.69309 46 5.21492 45.9049 4.76879 45.72C4.32267 45.5351 3.91734 45.2642 3.57597 44.9226C3.23459 44.5811 2.96386 44.1756 2.77925 43.7294C2.59463 43.2831 2.49974 42.8049 2.5 42.322V5.67601ZM19.916 18.776H25.874V21.768C26.734 20.048 28.934 18.5 32.24 18.5C38.578 18.5 40.08 21.926 40.08 28.212V39.856H33.666V29.644C33.666 26.064 32.806 24.044 30.622 24.044C27.592 24.044 26.332 26.222 26.332 29.644V39.856H19.916V18.776ZM8.916 39.582H15.332V18.5H8.916V39.58V39.582ZM16.25 11.624C16.2621 12.1733 16.1643 12.7196 15.9625 13.2306C15.7606 13.7417 15.4587 14.2073 15.0745 14.6001C14.6902 14.9929 14.2314 15.305 13.7249 15.518C13.2184 15.7311 12.6745 15.8408 12.125 15.8408C11.5755 15.8408 11.0316 15.7311 10.5251 15.518C10.0186 15.305 9.55978 14.9929 9.17554 14.6001C8.7913 14.2073 8.48939 13.7417 8.28752 13.2306C8.08566 12.7196 7.9879 12.1733 8 11.624C8.02375 10.5457 8.46877 9.51959 9.23977 8.76538C10.0108 8.01117 11.0464 7.58884 12.125 7.58884C13.2036 7.58884 14.2392 8.01117 15.0102 8.76538C15.7812 9.51959 16.2263 10.5457 16.25 11.624V11.624Z" fill="url(#paint0_linear_2905_2277)"/>
<defs>
<linearGradient id="paint0_linear_2905_2277" x1="2.5" y1="24.0515" x2="46.468" y2="22.8653" gradientUnits="userSpaceOnUse">
<stop stop-color="#6366F1"/>
<stop offset="0.316519" stop-color="#AF9DFF"/>
<stop offset="0.642845" stop-color="#B66AF7"/>
<stop offset="1" stop-color="#FF53CF"/>
</linearGradient>
</defs>
</svg>
