<svg xmlns="http://www.w3.org/2000/svg" viewBox="0 0 222 95.89"><defs><style>.cls-1{fill:#fff;}</style></defs><title>logo-blanco-horizontal-sinfondo</title><g id="Capa_2" data-name="Capa 2"><g id="Capa_1-2" data-name="Capa 1"><path class="cls-1" d="M58,17.42h0a1.53,1.53,0,0,0-.07-.29h0a1.48,1.48,0,0,0-.68-.84L29.77.21a1.52,1.52,0,0,0-1.54,0L.76,16.28A1.53,1.53,0,0,0,0,17.6V47.92A.34.34,0,0,0,0,48a.41.41,0,0,0,0,.11V78.44a1.52,1.52,0,0,0,.76,1.32L28.23,95.69a1.53,1.53,0,0,0,.77.2,1.47,1.47,0,0,0,.76-.2,1.52,1.52,0,0,0,.77-1.32V64.72L57.24,49.24A1.54,1.54,0,0,0,58,47.92V17.6h0A1,1,0,0,0,58,17.42ZM26,33.53,3.05,46.8V20.25l14.46,8.39Zm1.51,2.65v25L5.9,48.68ZM29,3.29l24.45,14.3L50.51,19.3,29,31.76,9.25,20.32l-4.7-2.73ZM27.47,91.72,3.05,77.56V50.78L27.47,64.93ZM55,47,30.53,61.19V34.41l10-5.77L55,20.25Z"/><path class="cls-1" d="M87.69,38.22a9.73,9.73,0,0,1,4.94,1.26A8.94,8.94,0,0,1,96,43a10,10,0,0,1,1.23,5,9.55,9.55,0,0,1-2.72,6.95,9.2,9.2,0,0,1-6.86,2.78,9.87,9.87,0,0,1-3.85-.76,9.15,9.15,0,0,1-3.11-2.14v9.15h-3V38.62h2l.59,2.85a9.15,9.15,0,0,1,3.2-2.39A9.84,9.84,0,0,1,87.69,38.22ZM82.56,52.87a7.09,7.09,0,0,0,9.8,0,7.23,7.23,0,0,0,0-9.86,6.58,6.58,0,0,0-4.89-2,7,7,0,0,0-4.91,11.82Z"/><path class="cls-1" d="M118.28,38.62h2.35V57.27H118.2l-.32-2.83a9,9,0,0,1-3.2,2.38,10.22,10.22,0,0,1-9-.41,9.12,9.12,0,0,1-3.47-3.5,10,10,0,0,1-1.25-5,9.47,9.47,0,0,1,2.76-7,9.29,9.29,0,0,1,6.88-2.77,10,10,0,0,1,4.15.86,9.07,9.07,0,0,1,3.22,2.41Zm-12.4,14.25a7.09,7.09,0,0,0,9.8,0,7.21,7.21,0,0,0,0-9.86,7.08,7.08,0,0,0-9.8,0,7.17,7.17,0,0,0,0,9.85Z"/><path class="cls-1" d="M133.62,38.22a6.65,6.65,0,0,1,5.23,2.21,8.21,8.21,0,0,1,2,5.68V57.27h-2.93V46.8a6.62,6.62,0,0,0-1.3-4.37,4.63,4.63,0,0,0-3.73-1.53,5.21,5.21,0,0,0-4,1.79,6.32,6.32,0,0,0-1.62,4.41V57.27h-3V38.62h2.09l.57,2.92a7.28,7.28,0,0,1,2.8-2.44A8.42,8.42,0,0,1,133.62,38.22Z"/><path class="cls-1" d="M161,32h2.94V57.27h-2.28l-.39-2.65a8.9,8.9,0,0,1-3.17,2.25,9.88,9.88,0,0,1-4,.81,9.22,9.22,0,0,1-6.89-2.78A9.55,9.55,0,0,1,144.47,48a10.15,10.15,0,0,1,1.22-5,9,9,0,0,1,3.43-3.49,9.78,9.78,0,0,1,5-1.26,10.08,10.08,0,0,1,3.83.72A9.41,9.41,0,0,1,161,41ZM149.42,52.88a7.08,7.08,0,0,0,9.8,0,6.89,6.89,0,0,0-4.9-11.81,6.62,6.62,0,0,0-4.9,2,7.21,7.21,0,0,0,0,9.86Z"/><path class="cls-1" d="M177.46,57.68a9.65,9.65,0,0,1-7.05-2.78A9.33,9.33,0,0,1,167.58,48a9.83,9.83,0,0,1,1.28-5,9.07,9.07,0,0,1,3.55-3.48,10.75,10.75,0,0,1,10.1,0A9.12,9.12,0,0,1,186.07,43a10.26,10.26,0,0,1,0,10,9.19,9.19,0,0,1-3.56,3.49A10.2,10.2,0,0,1,177.46,57.68Zm-4.94-4.78A7.29,7.29,0,1,0,170.58,48,6.7,6.7,0,0,0,172.52,52.9Z"/><path class="cls-1" d="M199.54,38.52h1.65V41.3h-1.9a5,5,0,0,0-3.93,1.56,6.16,6.16,0,0,0-1.4,4.28V57.27h-3V38.62h2.09l.47,2.84A6.78,6.78,0,0,1,199.54,38.52Z"/><path class="cls-1" d="M219.65,38.62H222V57.27h-2.43l-.32-2.83a9,9,0,0,1-3.2,2.38,10.22,10.22,0,0,1-9-.41,9.12,9.12,0,0,1-3.47-3.5,10,10,0,0,1-1.25-5A9.5,9.5,0,0,1,205,41a9.32,9.32,0,0,1,6.89-2.77,10,10,0,0,1,4.15.86,9.07,9.07,0,0,1,3.22,2.41ZM207.24,52.87a7.1,7.1,0,0,0,9.81,0,7.21,7.21,0,0,0,0-9.86,7.09,7.09,0,0,0-9.81,0,7.19,7.19,0,0,0,0,9.85Z"/></g></g></svg>