<svg width="100" height="100" viewBox="0 0 100 100" fill="none" xmlns="http://www.w3.org/2000/svg">
<path d="M31.2249 39.4758H44.9933V40.5693H32.487V48.7981H44.2477V49.8914H32.487V58.9259H45.1368V60.0192H31.2249V39.4758ZM46.2269 39.4758H47.6898L54.1724 48.5103L60.7984 39.4757L69.8109 28L55.0042 49.4599L62.6343 60.0192H61.1139L54.1724 50.4093L47.202 60.0192H45.7105L53.3979 49.4598L46.2269 39.4758ZM63.1792 40.5693V39.4757H78.8696V40.5691H71.6411V60.0191H70.379V40.5693H63.1792ZM14 39.4757H15.5776L37.3322 72L28.3422 60.0191L15.3194 41.0295L15.2621 60.0193H14L14 39.4757ZM78.7424 58.5957C78.4845 58.5957 78.2912 58.3963 78.2912 58.1382C78.2912 57.8803 78.4845 57.6806 78.7424 57.6806C79.0034 57.6806 79.1937 57.8802 79.1937 58.1382C79.1937 58.3961 79.0034 58.5957 78.7424 58.5957ZM79.9826 57.392H80.658C80.6671 57.7574 80.9342 58.0031 81.3271 58.0031C81.7661 58.0031 82.0148 57.739 82.0148 57.2446V54.1121H82.7024V57.2476C82.7024 58.1382 82.1867 58.6511 81.3332 58.6511C80.5319 58.6511 79.9826 58.1536 79.9826 57.3919V57.392ZM83.6018 57.3521H84.2833C84.3416 57.7728 84.753 58.0399 85.3455 58.0399C85.898 58.0399 86.3032 57.7543 86.3032 57.3613C86.3032 57.0235 86.0453 56.8208 85.459 56.6826L84.888 56.5445C84.0867 56.357 83.7216 55.9701 83.7216 55.3191C83.7216 54.5299 84.3661 54.0047 85.3331 54.0047C86.2325 54.0047 86.8895 54.5298 86.9294 55.2761H86.2602C86.1957 54.8677 85.8396 54.6127 85.3239 54.6127C84.7806 54.6127 84.4185 54.8738 84.4185 55.273C84.4185 55.5892 84.6516 55.7705 85.2288 55.9056L85.7168 56.0254C86.6255 56.2373 87 56.6058 87 57.2722C87 58.1198 86.3431 58.6511 85.2933 58.6511C84.311 58.6511 83.6508 58.1443 83.6018 57.352V57.3521Z" fill="black"/>
</svg>
