<svg width="100" height="100" viewBox="0 0 100 100" fill="none" xmlns="http://www.w3.org/2000/svg">
<path d="M47.04 14.7764C48.8444 13.7435 51.1947 13.7389 52.9976 14.7764C62.0679 19.9016 71.141 25.0187 80.2096 30.1469C81.9154 31.1077 83.0563 33.006 83.0389 34.9714V65.8064C83.0516 67.8532 81.7979 69.7968 79.9984 70.7358C70.958 75.8327 61.9222 80.9359 52.8833 86.0328C51.0415 87.0859 48.6441 87.0047 46.8598 85.8653C44.1495 84.2942 41.4345 82.7307 38.724 81.1611C38.1701 80.8309 37.5457 80.5681 37.1546 80.0311C37.5003 79.565 38.1185 79.507 38.6208 79.3035C39.7522 78.9438 40.7912 78.3663 41.8306 77.8059C42.0934 77.6261 42.4143 77.695 42.6662 77.856C44.9838 79.1848 47.281 80.5523 49.6064 81.8684C50.1025 82.1548 50.6048 81.7746 51.0289 81.5382C59.9003 76.5243 68.7826 71.5292 77.6525 66.5137C77.9812 66.3556 78.1629 66.0067 78.1362 65.6467C78.1424 55.4749 78.1377 45.3013 78.1393 35.1296C78.1768 34.7211 77.9405 34.3455 77.5711 34.1783C68.5621 29.1048 59.5577 24.0234 50.5501 18.9485C50.3941 18.8412 50.2092 18.7837 50.0198 18.7834C49.8304 18.7831 49.6454 18.8401 49.489 18.947C40.4815 24.0234 31.4787 29.1094 22.4711 34.1827C22.1031 34.3502 21.8561 34.7195 21.8999 35.1296C21.9014 45.3013 21.8999 55.4749 21.8999 65.6483C21.8843 65.8239 21.9229 66.0001 22.0104 66.1532C22.098 66.3063 22.2304 66.4288 22.3898 66.5044C24.7935 67.8674 27.2003 69.2209 29.6055 70.5793C30.9605 71.3086 32.6243 71.742 34.1172 71.1832C35.4346 70.7107 36.3581 69.3663 36.333 67.9675C36.3454 57.855 36.3267 47.7411 36.3423 37.6302C36.3094 37.1813 36.7352 36.8104 37.1717 36.8526C38.3266 36.8448 39.4831 36.8371 40.6381 36.8557C41.1201 36.8448 41.4519 37.3282 41.3923 37.7805C41.3876 47.957 41.4047 58.1337 41.3845 68.3101C41.3876 71.0222 40.2734 73.9733 37.7647 75.3004C34.6742 76.9014 30.8543 76.5618 27.8011 75.0267C25.1579 73.7074 22.6355 72.1505 20.0392 70.7371C18.235 69.8033 16.9875 67.8519 17.0002 65.8066V34.9714C16.9813 32.9653 18.1676 31.0326 19.9264 30.0858C28.9653 24.9847 38.0026 19.8798 47.04 14.7764Z" fill="#8CC84B"/>
<path d="M54.9255 36.136C58.8677 35.8822 63.088 35.9856 66.6355 37.9277C69.3821 39.416 70.9049 42.5394 70.9533 45.5908C70.8766 46.0024 70.4464 46.2295 70.0534 46.2012C68.9096 46.1997 67.7656 46.2168 66.6218 46.1935C66.1366 46.2121 65.8546 45.7648 65.7937 45.3358C65.465 43.8758 64.6688 42.4298 63.2946 41.7256C61.1851 40.6694 58.7391 40.7225 56.4389 40.7446C54.7596 40.8337 52.9538 40.9791 51.5312 41.9666C50.4389 42.7146 50.1072 44.2247 50.497 45.4408C50.8645 46.314 51.8725 46.5957 52.6972 46.8554C57.4481 48.098 62.4826 47.9743 67.1428 49.6095C69.0721 50.2762 70.9595 51.5721 71.62 53.5922C72.4838 56.2997 72.1052 59.5359 70.1789 61.7094C68.6168 63.4981 66.3416 64.4716 64.0724 65.0003C61.0537 65.6734 57.9209 65.6905 54.8552 65.3917C51.9726 65.063 48.9727 64.3057 46.7474 62.3416C44.8444 60.6892 43.915 58.1147 44.0072 55.6299C44.0293 55.2103 44.4471 54.9177 44.8491 54.9522C46.0009 54.9428 47.1527 54.9397 48.3045 54.9537C48.7646 54.9208 49.1057 55.3184 49.1293 55.752C49.3418 57.1431 49.8646 58.6031 51.0776 59.4278C53.4186 60.9381 56.3559 60.8347 59.0364 60.8769C61.2571 60.7784 63.75 60.7486 65.5622 59.2808C66.5184 58.4437 66.8017 57.043 66.5433 55.8381C66.2633 54.8207 65.1991 54.3467 64.2852 54.0367C59.5952 52.5531 54.5046 53.0914 49.8599 51.4137C47.9743 50.7474 46.151 49.4875 45.4265 47.5503C44.4157 44.8086 44.8789 41.4174 47.0071 39.3172C49.0821 37.2282 52.0775 36.4237 54.9255 36.1357V36.136Z" fill="#8CC84B"/>
</svg>
