<svg width="100" height="100" viewBox="0 0 100 100" fill="none" xmlns="http://www.w3.org/2000/svg">
<path d="M50 71C28.4957 71 11 61.5793 11 50C11 38.4207 28.4957 29 50 29C71.5043 29 89 38.4207 89 50C89 61.5793 71.5043 71 50 71Z" fill="#DCD5F2"/>
<path d="M50 29C71.505 29 89 38.421 89 50C89 61.579 71.505 71 50 71C28.495 71 11 61.579 11 50C11 38.421 28.495 29 50 29ZM50 28C27.909 28 10 37.85 10 50C10 62.15 27.909 72 50 72C72.091 72 90 62.15 90 50C90 37.85 72.091 28 50 28Z" fill="#8B75A1"/>
<path d="M35.1119 44C36.8368 44 38.3258 44.622 39.1958 45.706C39.9448 46.64 40.1768 47.877 39.8638 49.283C39.0228 53.074 37.3948 54 31.5699 54H27.43L29.1799 44H35.1119ZM35.1119 42H27.5L24 62H26L27.056 56H31.5709C37.4338 56 40.6238 55.095 41.8168 49.716C42.8418 45.096 39.4358 42 35.1119 42ZM71.1114 44C72.8364 44 74.3254 44.622 75.1954 45.706C75.9443 46.64 76.1763 47.877 75.8633 49.283C75.0224 53.074 73.3944 54 67.5695 54H63.4295L65.1795 44H71.1114ZM71.1114 42H63.4995L59.9995 62H61.9995L63.0555 56H67.5704C73.4334 56 76.6233 55.095 77.8163 49.716C78.8413 45.096 75.4354 42 71.1114 42Z" fill="#36404D"/>
<path d="M59.2374 42.8954C58.3631 42.036 56.8224 41.6898 54.5247 41.6898H49.0163L50.2139 35.7219H48.1251L44.246 55.615H46.2253L48.6006 43.6791H49.0173H54.5257C56.8512 43.6791 57.6032 44.077 57.8429 44.3127C58.184 44.6489 58.2646 45.5322 58.0587 46.6631L56.3012 55.615H58.3959L60.0132 47.0311C60.3583 45.1333 60.0968 43.7408 59.2374 42.8954Z" fill="#36404D"/>
</svg>
