<svg width="100" height="100" viewBox="0 0 100 100" fill="none" xmlns="http://www.w3.org/2000/svg">
<path d="M50 56C53.3137 56 56 53.0899 56 49.5C56 45.9101 53.3137 43 50 43C46.6863 43 44 45.9101 44 49.5C44 53.0899 46.6863 56 50 56Z" fill="#39C1D7"/>
<path d="M50 57C46.1404 57 43 53.6353 43 49.5C43 45.3647 46.1404 42 50 42C53.8596 42 57 45.3647 57 49.5C57 53.6353 53.8596 57 50 57ZM50 43.875C47.1046 43.875 44.75 46.3978 44.75 49.5C44.75 52.6022 47.1046 55.125 50 55.125C52.8954 55.125 55.25 52.6022 55.25 49.5C55.25 46.3978 52.8954 43.875 50 43.875Z" fill="#1F212B"/>
<path d="M85 49.9995C85 45.1693 79.1145 40.9886 69.9836 38.5007C72.3309 29.4296 71.6082 22.2965 67.4136 19.876C65.7591 18.9209 63.7518 18.7466 61.4482 19.3558C57.9773 20.274 54 22.9587 50 26.9022C46 22.9587 42.0227 20.2749 38.5518 19.3558C36.2482 18.7457 34.2409 18.9209 32.5864 19.876C28.3918 22.2965 27.6691 29.4287 30.0164 38.5007C20.8855 40.9886 15 45.1693 15 49.9995C15 54.8298 20.8855 59.0105 30.0164 61.4993C27.6691 70.5704 28.3918 77.7035 32.5864 80.124C33.5973 80.7071 34.7391 81.0009 36.0009 81C36.8036 81 37.6555 80.8814 38.5518 80.6442C42.0227 79.7251 46 77.0413 50 73.0978C54 77.0413 57.9773 79.7251 61.4482 80.6442C62.3445 80.8814 63.1964 81 63.9991 81C65.2609 81 66.4027 80.708 67.4136 80.124C71.6082 77.7035 72.33 70.5704 69.9836 61.4993C79.1145 59.0105 85 54.8298 85 49.9995ZM62.1536 21.9587C62.8127 21.7853 63.4236 21.6972 63.9864 21.6972C64.7682 21.6972 65.4555 21.8662 66.0382 22.2031C68.8491 23.8258 69.4227 29.7683 67.3291 37.8466C64.4445 37.2051 61.2973 36.7226 57.9527 36.4243C55.99 33.6273 53.9482 31.081 51.8909 28.851C55.5436 25.2328 59.1273 22.7601 62.1536 21.9587ZM59.7773 55.6591C58.7055 57.5154 57.5773 59.2935 56.42 60.9952C54.3655 61.1471 52.2236 61.2306 50 61.2306C47.7764 61.2306 45.6345 61.1471 43.5809 60.9952C42.4236 59.2935 41.2955 57.5154 40.2236 55.6591C39.1155 53.7399 38.1209 51.8495 37.23 50.0004C38.1209 48.1514 39.1155 46.2609 40.2236 44.3409C41.2964 42.4837 42.4236 40.7056 43.5818 39.0039C45.6355 38.852 47.7764 38.7685 50 38.7685C52.2236 38.7685 54.3645 38.852 56.4191 39.0039C57.5764 40.7056 58.7045 42.4846 59.7773 44.3409C60.8855 46.26 61.88 48.1505 62.7709 50.0004C61.88 51.8495 60.8855 53.7399 59.7773 55.6591ZM64.2218 53.1847C65.1682 55.3958 65.95 57.5244 66.5827 59.5478C64.5145 60.0033 62.2818 60.3833 59.8973 60.6646C60.6627 59.4732 61.4173 58.2548 62.1455 56.9943C62.8827 55.7193 63.5709 54.4479 64.2218 53.1847ZM50 69.1885C48.5127 67.5631 47.0282 65.7635 45.5782 63.8165C47.0255 63.8856 48.4982 63.9261 50 63.9261C51.5018 63.9261 52.9745 63.8856 54.4218 63.8165C52.9718 65.7626 51.4873 67.5622 50 69.1885ZM40.1018 60.6646C37.7182 60.3833 35.4845 60.0033 33.4164 59.5478C34.0491 57.5244 34.8309 55.395 35.7773 53.1847C36.4282 54.4479 37.1173 55.7193 37.8536 56.9943C38.5827 58.2557 39.3364 59.4741 40.1018 60.6646ZM35.7782 46.8153C34.8318 44.6041 34.0491 42.4747 33.4173 40.4504C35.4855 39.9949 37.7191 39.6148 40.1036 39.3336C39.3373 40.525 38.5836 41.7443 37.8555 43.0048C37.1173 44.2807 36.4291 45.552 35.7782 46.8153ZM50 30.8115C51.4873 32.4368 52.9718 34.2365 54.4218 36.1835C52.9745 36.1134 51.5018 36.073 50 36.073C48.4982 36.073 47.0255 36.1134 45.5782 36.1826C47.0282 34.2365 48.5127 32.4368 50 30.8115ZM62.1455 43.0057C61.4173 41.7443 60.6627 40.5259 59.8973 39.3345C62.2818 39.6157 64.5145 39.9958 66.5836 40.4513C65.9509 42.4756 65.1691 44.6041 64.2227 46.8162C63.5709 45.552 62.8827 44.2807 62.1455 43.0057ZM33.9618 22.2031C34.5455 21.8662 35.2309 21.6972 36.0136 21.6972C36.5755 21.6972 37.1882 21.7853 37.8464 21.9587C40.8727 22.7601 44.4564 25.2319 48.1091 28.8501C46.0518 31.0801 44.01 33.6273 42.0473 36.4234C38.7027 36.7217 35.5545 37.2042 32.6709 37.8457C30.5773 29.7674 31.1509 23.8249 33.9618 22.2031ZM17.7273 49.9995C17.7273 46.7686 22.6373 43.3148 30.7591 41.1036C31.64 43.9419 32.7964 46.9312 34.2191 49.9995C32.7964 53.0679 31.64 56.0571 30.7591 58.8955C22.6373 56.6843 17.7273 53.2305 17.7273 49.9995ZM37.8464 78.0404C36.2709 78.4555 34.9645 78.3737 33.9618 77.7969C31.1509 76.1742 30.5782 70.2316 32.6709 62.1534C35.5545 62.7949 38.7027 63.2774 42.0464 63.5757C44.0091 66.3727 46.0509 68.919 48.1082 71.1499C44.4564 74.7672 40.8727 77.2389 37.8464 78.0404ZM66.0382 77.7969C65.0355 78.3755 63.73 78.4564 62.1536 78.0404C59.1273 77.2389 55.5436 74.7672 51.8909 71.149C53.9482 68.919 55.99 66.3718 57.9527 63.5748C61.2973 63.2765 64.4445 62.794 67.3282 62.1525C69.4227 70.2316 68.8491 76.1742 66.0382 77.7969ZM69.2409 58.8955C68.36 56.0571 67.2036 53.0679 65.7809 49.9995C67.2036 46.9312 68.36 43.9411 69.2409 41.1036C77.3627 43.3148 82.2727 46.7686 82.2727 49.9995C82.2727 53.2305 77.3627 56.6843 69.2409 58.8955Z" fill="#39C1D7"/>
<path d="M36.175 81C34.8549 81 33.6469 80.6841 32.5844 80.0614C28.4274 77.6271 27.3945 70.8137 29.7323 61.333C20.3622 58.6611 15 54.3604 15 49.5008C15 44.6411 20.3622 40.3404 29.7314 37.6685C27.3945 28.1878 28.4274 21.3744 32.5844 18.9401C34.3236 17.9196 36.4191 17.7288 38.8153 18.3732C42.1519 19.2695 46.0127 21.8109 50 25.7337C53.9882 21.8109 57.849 19.2695 61.1847 18.3732C63.58 17.7306 65.6764 17.9214 67.4165 18.9401C71.5726 21.3744 72.6055 28.1878 70.2686 37.6685C79.6378 40.3404 85 44.6411 85 49.5008C85 54.3604 79.6378 58.6611 70.2686 61.333C72.6055 70.8137 71.5735 77.6262 67.4165 80.0614C65.6872 81.0738 63.5701 81.2691 61.1856 80.6283C57.8481 79.732 53.9873 77.1906 50 73.2687C46.0127 77.1906 42.1519 79.7329 38.8153 80.6283C37.8972 80.8749 37.0105 81 36.1804 81C36.1786 81 36.1768 81 36.175 81ZM36.1831 18.9023C35.0155 18.9023 33.9628 19.1741 33.0358 19.7177C29.245 21.9378 28.3745 28.7241 30.7069 37.8719C30.7671 38.1095 30.6271 38.3525 30.391 38.4172C21.3162 40.9262 15.8974 45.0704 15.8974 49.5008C15.8974 53.9311 21.3162 58.0753 30.3919 60.5843C30.6279 60.6491 30.7679 60.892 30.7078 61.1296C28.3745 70.2774 29.245 77.0646 33.0358 79.2838C33.9601 79.8247 35.0164 80.0992 36.175 80.0992C36.1768 80.0992 36.1786 80.0992 36.1804 80.0992C36.9324 80.0992 37.7401 79.9849 38.5828 79.759C41.8558 78.8798 45.695 76.3069 49.6832 72.3166C49.8582 72.142 50.1418 72.142 50.3168 72.3166C54.305 76.306 58.1442 78.8789 61.4172 79.759C63.5656 80.3341 65.4422 80.1739 66.9642 79.2838C70.755 77.0637 71.6255 70.2774 69.2922 61.1296C69.2321 60.892 69.3721 60.6491 69.6081 60.5843C78.6838 58.0753 84.1026 53.9311 84.1026 49.5008C84.1026 45.0704 78.6838 40.9262 69.6081 38.4172C69.3721 38.3525 69.2321 38.1095 69.2922 37.8719C71.6246 28.7241 70.7541 21.9369 66.9633 19.7177C65.4386 18.824 63.5719 18.6647 61.4163 19.2425C58.1433 20.1217 54.305 22.6946 50.3159 26.6849C50.1409 26.8595 49.8573 26.8595 49.6823 26.6849C45.6932 22.6946 41.8549 20.1217 38.5819 19.2425C37.7374 19.0157 36.9369 18.9023 36.1831 18.9023ZM63.8079 78.2975C63.213 78.2975 62.5704 78.2057 61.8821 78.0212C58.8927 77.2176 55.32 74.7914 51.549 71.0018C51.3803 70.8317 51.374 70.5582 51.5346 70.3809C53.5673 68.1454 55.5677 65.6085 57.4819 62.8413C57.5573 62.7315 57.6776 62.6613 57.8104 62.6496C61.0519 62.3562 64.1463 61.8801 67.0082 61.234C67.2424 61.1809 67.4812 61.3249 67.5413 61.5616C69.6377 69.7716 69.0696 75.9676 66.0587 77.7306C65.4135 78.1085 64.6605 78.2975 63.8079 78.2975ZM52.4868 70.6679C56.0326 74.1723 59.3549 76.4104 62.1136 77.1519C63.5486 77.5362 64.7242 77.4696 65.6064 76.9539C68.1686 75.4528 68.6191 69.6888 66.7785 62.2068C64.061 62.7999 61.1453 63.2435 58.1003 63.527C56.291 66.1296 54.4046 68.5288 52.4868 70.6679ZM36.1921 78.2975C35.3395 78.2975 34.5865 78.1085 33.9413 77.7315C30.9304 75.9676 30.3614 69.7716 32.4587 61.5616C32.5188 61.3258 32.7576 61.1845 32.9918 61.234C35.8528 61.8801 38.9472 62.3562 42.1896 62.6496C42.3215 62.6613 42.4427 62.7315 42.5181 62.8413C44.4323 65.6085 46.4327 68.1454 48.4654 70.3809C48.6269 70.5582 48.6206 70.8317 48.451 71.0018C44.68 74.7905 41.1073 77.2176 38.1188 78.0212C37.4296 78.2048 36.7862 78.2975 36.1921 78.2975ZM33.2215 62.2068C31.3809 69.6879 31.8314 75.4528 34.3936 76.9539C35.2749 77.4687 36.4505 77.5362 37.8864 77.1519C40.6451 76.4104 43.9674 74.1714 47.5132 70.6679C45.5963 68.5288 43.7099 66.1296 41.9006 63.527C38.8556 63.2435 35.939 62.7999 33.2215 62.2068ZM50 69.1696C49.8735 69.1696 49.7523 69.1156 49.6671 69.0211C48.1746 67.3661 46.6965 65.5438 45.2732 63.6053C45.1709 63.4658 45.1574 63.2786 45.2391 63.1256C45.3208 62.9727 45.4733 62.8791 45.6564 62.889C48.6233 63.0339 51.3767 63.0339 54.3436 62.889C54.5231 62.8782 54.6792 62.9727 54.7609 63.1256C54.8426 63.2786 54.83 63.4649 54.7268 63.6053C53.3035 65.5429 51.8254 67.3652 50.3329 69.0211C50.2477 69.1156 50.1265 69.1696 50 69.1696ZM46.5601 63.8312C47.6828 65.3206 48.8369 66.7344 50 68.0465C51.164 66.7344 52.3172 65.3215 53.4399 63.8312C51.0958 63.9212 48.9042 63.9212 46.5601 63.8312ZM50 61.1998C47.874 61.1998 45.7309 61.1206 43.6291 60.9631C43.4918 60.9532 43.3671 60.8803 43.2899 60.7651C42.09 58.9752 40.9691 57.1672 39.9586 55.3926C38.8996 53.5315 37.8999 51.6147 36.9881 49.6942C36.9297 49.5718 36.9297 49.4297 36.9881 49.3073C37.8999 47.3868 38.8996 45.47 39.9586 43.6089C40.9682 41.8361 42.0891 40.0281 43.2908 38.2355C43.3671 38.1212 43.4927 38.0483 43.63 38.0375C47.8336 37.7225 52.1673 37.7225 56.37 38.0375C56.5073 38.0474 56.6321 38.1203 56.7092 38.2355C57.9109 40.0281 59.0318 41.8361 60.0414 43.6089C61.1004 45.47 62.1001 47.3868 63.0119 49.3073C63.0703 49.4297 63.0703 49.5718 63.0119 49.6942C62.1001 51.6147 61.1004 53.5315 60.0414 55.3926C59.0309 57.1672 57.91 58.9752 56.7101 60.7651C56.6338 60.8794 56.5082 60.9523 56.3709 60.9631C54.2691 61.1206 52.126 61.1998 50 61.1998ZM43.9136 60.0812C47.9332 60.371 52.0668 60.371 56.0855 60.0812C57.2279 58.3686 58.2959 56.6417 59.2615 54.9453C60.2738 53.1662 61.2314 51.3357 62.1091 49.5008C61.2314 47.6658 60.2738 45.8344 59.2615 44.0562C58.2968 42.3616 57.2288 40.6347 56.0846 38.9194C52.065 38.6296 47.9323 38.6296 43.9127 38.9194C42.7694 40.6347 41.7005 42.3616 40.7358 44.0562C39.7235 45.8353 38.7659 47.6658 37.8882 49.5008C38.7659 51.3357 39.7235 53.1671 40.7358 54.9453C41.7032 56.6426 42.7712 58.3686 43.9136 60.0812ZM59.7713 60.6338C59.6187 60.6338 59.4742 60.5555 59.3917 60.4241C59.2992 60.2765 59.3001 60.0893 59.3926 59.9426C60.2254 58.6278 60.9478 57.4309 61.6003 56.2844C62.2859 55.0803 62.9715 53.8024 63.6401 52.4876C63.7191 52.3319 63.8851 52.2392 64.0556 52.2428C64.2297 52.2491 64.385 52.3553 64.4532 52.5173C65.3641 54.6762 66.153 56.8352 66.7991 58.9329C66.8368 59.0526 66.8215 59.1831 66.7587 59.2911C66.6959 59.4 66.59 59.4773 66.4679 59.5043C64.359 59.9768 62.1235 60.3557 59.8242 60.6311C59.8063 60.6329 59.7883 60.6338 59.7713 60.6338ZM63.9964 53.7583C63.4633 54.7824 62.9213 55.7786 62.3801 56.7299C61.8569 57.6496 61.2888 58.6008 60.6571 59.6177C62.425 59.382 64.1481 59.0841 65.7967 58.7295C65.2788 57.097 64.6758 55.4313 63.9964 53.7583ZM40.2287 60.6338C40.2108 60.6338 40.1928 60.6329 40.1749 60.6311C37.8765 60.3548 35.641 59.9759 33.5321 59.5034C33.41 59.4764 33.305 59.399 33.2413 59.2902C33.1785 59.1813 33.1641 59.0517 33.2009 58.932C33.8471 56.8334 34.6359 54.6753 35.5468 52.5164C35.615 52.3553 35.7703 52.2482 35.9444 52.2419C36.1077 52.2248 36.2809 52.331 36.3599 52.4867C37.0285 53.8015 37.7141 55.0794 38.3997 56.2835C39.0531 57.43 39.7755 58.6269 40.6074 59.9417C40.7008 60.0884 40.7008 60.2756 40.6083 60.4232C40.5258 60.5555 40.3822 60.6338 40.2287 60.6338ZM34.2042 58.7295C35.8528 59.0841 37.5759 59.382 39.3438 59.6177C38.7112 58.6008 38.144 57.6496 37.6208 56.7299C37.0787 55.7786 36.5376 54.7815 36.0045 53.7583C35.3242 55.4313 34.7212 57.097 34.2042 58.7295ZM68.9942 58.8609C68.8013 58.8609 68.6245 58.7358 68.5653 58.5423C67.6903 55.6815 66.5478 52.7027 65.1712 49.6888C65.1164 49.57 65.1164 49.4324 65.1712 49.3136C66.5478 46.2997 67.6903 43.3201 68.5662 40.4583C68.638 40.2252 68.8839 40.0947 69.1145 40.1568C77.2524 42.4057 82.3077 45.9856 82.3077 49.5008C82.3077 53.0159 77.2515 56.5958 69.1127 58.8447C69.0732 58.8555 69.0328 58.8609 68.9942 58.8609ZM66.0722 49.5008C67.3609 52.34 68.4441 55.1496 69.2931 57.8593C76.6691 55.7507 81.4103 52.4903 81.4103 49.5008C81.4103 46.5112 76.6691 43.2508 69.2931 41.1422C68.4432 43.8528 67.36 46.6624 66.0722 49.5008ZM31.0058 58.8609C30.9663 58.8609 30.9268 58.8555 30.8864 58.8447C22.7485 56.5958 17.6923 53.0159 17.6923 49.5008C17.6923 45.9856 22.7476 42.4057 30.8864 40.1568C31.1179 40.0947 31.3629 40.2252 31.4347 40.4583C32.3106 43.3201 33.4531 46.2997 34.8297 49.3136C34.8845 49.4324 34.8845 49.5691 34.8297 49.6888C33.4522 52.7036 32.3106 55.6824 31.4356 58.5423C31.3764 58.7358 31.1987 58.8609 31.0058 58.8609ZM30.7069 41.1422C23.3309 43.2508 18.5897 46.5112 18.5897 49.5008C18.5897 52.4903 23.3309 55.7507 30.7069 57.8593C31.5568 55.1496 32.6391 52.3409 33.9278 49.5008C32.64 46.6624 31.5568 43.8528 30.7069 41.1422ZM64.0404 46.7623C63.8717 46.7623 63.7173 46.6678 63.6401 46.5166C62.9608 45.1775 62.2931 43.9347 61.6012 42.7189C60.9496 41.5742 60.2272 40.3773 59.3926 39.0598C59.2992 38.9131 59.2992 38.7259 59.3917 38.5783C59.4841 38.4316 59.6492 38.3507 59.8251 38.3714C62.1253 38.6476 64.3608 39.0265 66.4697 39.4981C66.5918 39.5251 66.6968 39.6025 66.7605 39.7113C66.8233 39.8202 66.8377 39.9498 66.8009 40.0695C66.1538 42.1717 65.3641 44.3307 64.455 46.4869C64.3868 46.648 64.2315 46.7551 64.0574 46.7614C64.0503 46.7623 64.0449 46.7623 64.0404 46.7623ZM62.3792 42.2725C62.9276 43.2355 63.4606 44.2146 63.9955 45.2441C64.674 43.5738 65.2771 41.9063 65.7949 40.272C64.1463 39.9174 62.4232 39.6196 60.6544 39.3838C61.2897 40.4025 61.8569 41.3537 62.3792 42.2725ZM35.9596 46.7623C35.9542 46.7623 35.9488 46.7623 35.9435 46.7623C35.7694 46.756 35.6141 46.6498 35.5459 46.4878C34.6368 44.3316 33.8471 42.1726 33.2 40.0704C33.1623 39.9507 33.1776 39.8202 33.2404 39.7122C33.3032 39.6034 33.4091 39.526 33.5312 39.499C35.6401 39.0265 37.8756 38.6476 40.1758 38.3723C40.3508 38.3543 40.5168 38.4325 40.6092 38.5792C40.7017 38.7268 40.7008 38.914 40.6083 39.0607C39.7737 40.3782 39.0513 41.5751 38.3997 42.7198C37.7078 43.9356 37.0401 45.1775 36.3608 46.5175C36.2827 46.6678 36.1283 46.7623 35.9596 46.7623ZM34.2042 40.272C34.722 41.9063 35.326 43.5738 36.0036 45.2441C36.5394 44.2146 37.0715 43.2355 37.6199 42.2725C38.1431 41.3537 38.7103 40.4025 39.3438 39.3838C37.5759 39.6196 35.8528 39.9174 34.2042 40.272ZM67.1078 37.7783C67.0746 37.7783 67.0423 37.7747 67.0091 37.7675C64.1481 37.1214 61.0528 36.6453 57.8104 36.3519C57.6785 36.3402 57.5573 36.27 57.4819 36.1602C55.5677 33.3921 53.5664 30.8561 51.5346 28.6215C51.3731 28.4443 51.3794 28.1707 51.549 28.0006C55.3191 24.2119 58.8927 21.7839 61.8821 20.9812C63.5594 20.5312 64.9674 20.6329 66.0587 21.2709C69.0696 23.0348 69.6386 29.2308 67.5422 37.4408C67.4901 37.6424 67.3088 37.7783 67.1078 37.7783ZM58.0994 35.4745C61.1444 35.758 64.061 36.2016 66.7785 36.7947C68.6191 29.3136 68.1686 23.5487 65.6055 22.0476C64.7269 21.5337 63.5495 21.4662 62.1136 21.8496C59.3549 22.5911 56.0317 24.8301 52.4859 28.3345C54.4037 30.4718 56.2901 32.871 58.0994 35.4745ZM32.8922 37.7783C32.6912 37.7783 32.5099 37.6424 32.4578 37.4399C30.3614 29.2299 30.9295 23.0348 33.9404 21.2709C33.9404 21.2709 33.9404 21.2709 33.9413 21.2709C35.0326 20.6329 36.4424 20.5312 38.1171 20.9812C41.1073 21.7848 44.68 24.2119 48.4501 28.0006C48.6188 28.1707 48.6251 28.4443 48.4645 28.6215C46.4327 30.8561 44.4314 33.393 42.5172 36.1602C42.4418 36.27 42.3215 36.3402 42.1887 36.3519C38.9472 36.6453 35.8519 37.1214 32.99 37.7675C32.9577 37.7747 32.9254 37.7783 32.8922 37.7783ZM34.3936 22.0476C31.8314 23.5487 31.3809 29.3136 33.2206 36.7947C35.9381 36.2016 38.8547 35.758 41.8997 35.4745C43.7099 32.871 45.5954 30.4718 47.5123 28.3336C43.9665 24.8292 40.6442 22.5902 37.8846 21.8487C36.455 21.4662 35.2758 21.5328 34.3936 22.0476ZM54.3651 36.1116C54.3579 36.1116 54.3508 36.1116 54.3436 36.1116C51.3767 35.9667 48.6242 35.9667 45.6573 36.1116C45.4724 36.1161 45.3217 36.027 45.24 35.875C45.1583 35.722 45.1709 35.5357 45.2741 35.3953C46.6983 33.4559 48.1764 31.6336 49.6679 29.9795C49.8385 29.7914 50.1633 29.7914 50.3338 29.9795C51.8245 31.6327 53.3026 33.4551 54.7277 35.3953C54.83 35.5348 54.8435 35.722 54.7618 35.875C54.6819 36.0207 54.5294 36.1116 54.3651 36.1116ZM50 35.1019C51.1146 35.1019 52.2678 35.1253 53.4399 35.1712C52.3163 33.68 51.1622 32.2662 50 30.956C48.8378 32.2671 47.6837 33.68 46.5601 35.1712C47.7322 35.1253 48.8854 35.1019 50 35.1019Z" fill="#1F212B"/>
</svg>
