<svg width="100" height="100" viewBox="0 0 100 100" fill="none" xmlns="http://www.w3.org/2000/svg">
<path d="M76.5451 54.1868C73.9235 54.2004 71.6531 54.8269 69.7509 55.7624C69.0554 54.3786 68.3498 53.1612 68.2322 52.2562C68.0941 51.2001 67.9339 50.5685 68.1009 49.3103C68.268 48.0522 68.9992 46.2694 68.989 46.1352C68.9787 46.0011 68.8253 45.361 67.3134 45.3491C65.8015 45.3389 64.5078 45.6394 64.3561 46.0367C64.2044 46.434 63.9129 47.3289 63.7322 48.2627C63.468 49.6278 60.7136 54.4992 59.1505 57.0461C58.6392 56.0511 58.2045 55.175 58.1142 54.4822C57.9761 53.4261 57.8159 52.7945 57.9829 51.5363C58.15 50.2781 58.8812 48.4953 58.871 48.3612C58.8607 48.2271 58.7073 47.5869 57.1954 47.5751C55.6835 47.5649 54.3898 47.8654 54.2381 48.2627C54.0864 48.66 53.9228 49.5888 53.6142 50.4887C53.304 51.3869 49.6444 59.5115 48.6848 61.6186C48.1956 62.6917 47.7712 63.5542 47.4712 64.1417C47.4695 64.14 47.4695 64.1383 47.4695 64.1383C47.4695 64.1383 47.4507 64.1774 47.42 64.2436C47.1627 64.7445 47.011 65.0212 47.011 65.0212C47.011 65.0212 47.0127 65.0246 47.0161 65.0314C46.8115 65.3999 46.5933 65.7411 46.486 65.7411C46.411 65.7411 46.2593 64.7614 46.5183 63.4167C47.0638 60.5981 48.3712 56.2039 48.3592 56.0511C48.3524 55.973 48.603 55.2072 47.5053 54.8065C46.4382 54.4177 46.0581 55.0663 45.961 55.068C45.8672 55.0697 45.7973 55.2972 45.7973 55.2972C45.7973 55.2972 46.9854 50.3546 43.5303 50.3546C41.369 50.3546 38.3759 52.7096 36.9015 54.8439C35.9708 55.3498 33.9782 56.4331 31.8663 57.5894C31.055 58.0343 30.2266 58.4876 29.4408 58.9189C29.388 58.8595 29.3334 58.8017 29.2789 58.7423C25.0875 54.2886 17.3422 51.139 17.6694 45.1504C17.7888 42.9737 18.549 37.2415 32.555 30.2902C44.0281 24.5953 53.2137 26.1625 54.8006 29.6348C57.0676 34.5978 49.8916 43.8192 37.977 45.1504C33.4379 45.6581 31.0465 43.9041 30.4516 43.2521C29.826 42.5645 29.7323 42.5339 29.4988 42.663C29.1187 42.8735 29.359 43.4797 29.4988 43.8413C29.855 44.7633 31.3141 46.3984 33.8027 47.2134C35.993 47.9299 41.323 48.3221 47.7678 45.8381C54.9881 43.0569 60.6249 35.3177 58.9681 28.8503C57.2841 22.2726 46.3343 20.1094 35.9708 23.7769C29.7954 25.9605 23.1188 29.3869 18.3172 33.8592C12.6087 39.1771 11.6985 43.8074 12.0735 45.7413C13.4064 52.6145 22.9159 57.0902 26.7238 60.4063C26.5363 60.5098 26.3591 60.6066 26.1988 60.6949C24.2898 61.6356 17.0405 65.4151 15.2269 69.407C13.1695 73.9353 15.5541 77.1852 17.1325 77.6232C22.0228 78.9782 27.0409 76.5399 29.7391 72.5328C32.4356 68.5274 32.1067 63.3097 30.8692 60.9292C30.8539 60.9004 30.8368 60.8715 30.8215 60.8409C31.3141 60.5506 31.8169 60.2551 32.3146 59.9631C33.2862 59.3943 34.2407 58.8646 35.0674 58.4163C34.6038 59.6796 34.2646 61.1958 34.089 63.3844C33.8811 65.9551 34.9396 69.2779 36.3236 70.5853C36.9339 71.1609 37.6668 71.1745 38.1304 71.1745C39.7412 71.1745 40.4758 69.8399 41.2855 68.2609C42.2775 66.3252 43.1588 64.0704 43.1588 64.0704C43.1588 64.0704 42.0542 70.1591 45.0644 70.1591C46.1621 70.1591 47.2649 68.7414 47.7575 68.0198C47.7592 68.0282 47.7592 68.0316 47.7592 68.0316C47.7592 68.0316 47.7882 67.9841 47.8445 67.8907C47.9587 67.7175 48.0234 67.6072 48.0234 67.6072C48.0234 67.6072 48.0251 67.5953 48.0285 67.5749C48.47 66.8125 49.4484 65.0739 50.9143 62.2061C52.8097 58.5012 54.6267 53.8591 54.6267 53.8591C54.6267 53.8591 54.7955 54.9933 55.3494 56.8712C55.675 57.9748 56.367 59.1956 56.9142 60.3672C56.4744 60.9751 56.2051 61.3231 56.2051 61.3231C56.2051 61.3231 56.2068 61.3299 56.2119 61.3418C55.8608 61.8071 55.4671 62.3079 55.0546 62.7969C53.558 64.5713 51.7768 66.5986 51.5381 67.1827C51.2569 67.872 51.3234 68.378 51.8671 68.7872C52.2643 69.0844 52.9699 69.1319 53.708 69.0827C55.0529 68.9927 55.9972 68.6599 56.4642 68.4578C57.192 68.2014 58.0392 67.799 58.8335 67.2166C60.3011 66.1419 61.1857 64.6052 61.1005 62.5677C61.0527 61.4454 60.6948 60.3333 60.2397 59.2839C60.3726 59.0938 60.5056 58.9002 60.6403 58.7066C62.9533 55.338 64.7481 51.6365 64.7481 51.6365C64.7481 51.6365 64.9169 52.7707 65.4708 54.6486C65.7504 55.5977 66.3044 56.6352 66.8021 57.6505C64.6271 59.4113 63.2788 61.4573 62.8101 62.7986C61.9442 65.281 62.6226 66.405 63.8942 66.6614C64.4703 66.7769 65.2851 66.5137 65.897 66.2556C66.6589 66.0043 67.5742 65.5849 68.4299 64.9584C69.8975 63.8836 71.3088 62.3793 71.2236 60.3434C71.1844 59.4164 70.9321 58.4961 70.5895 57.6132C72.4338 56.8474 74.8201 56.4229 77.861 56.7761C84.3841 57.5351 85.6625 61.5914 85.4188 63.2893C85.1733 64.9873 83.8063 65.9211 83.3478 66.203C82.891 66.4848 82.7512 66.5833 82.7887 66.7922C82.845 67.0961 83.0563 67.0859 83.4467 67.0197C83.9836 66.9297 86.871 65.6393 86.9955 62.5049C87.1506 58.5216 83.3239 54.1511 76.5451 54.1868ZM26.267 71.0709C24.1057 73.4192 21.0887 74.3055 19.7933 73.5584C18.3956 72.7519 18.9495 69.2949 21.6 66.8023C23.2159 65.2844 25.3023 63.8853 26.6863 63.0245C27.0017 62.836 27.4636 62.5592 28.0261 62.223C28.1198 62.1704 28.1727 62.1415 28.1727 62.1415L28.171 62.1381C28.28 62.0736 28.3908 62.0074 28.505 61.9378C29.4715 65.4848 28.5357 68.6072 26.267 71.0709ZM42.0082 60.4131C41.2565 62.24 39.6815 66.9161 38.7219 66.6648C37.8986 66.4492 37.3975 62.8954 38.5583 59.3977C39.1412 57.637 40.3889 55.5332 41.1219 54.7165C42.3014 53.4023 43.6002 52.9728 43.9156 53.5059C44.3161 54.1851 42.4804 59.267 42.0082 60.4131ZM55.0119 66.5935C54.6932 66.7599 54.4 66.8635 54.2654 66.7837C54.1648 66.7242 54.3966 66.5052 54.3966 66.5052C54.3966 66.5052 56.0227 64.7614 56.6636 63.9685C57.0369 63.5067 57.4682 62.9582 57.9386 62.347C57.942 62.4081 57.9437 62.4692 57.9437 62.5287C57.9403 64.6171 55.9153 66.0264 55.0119 66.5935ZM65.0294 64.3183C64.7907 64.1502 64.8317 63.6052 65.614 61.9055C65.9208 61.2383 66.6231 60.1159 67.8401 59.0428C67.9816 59.4843 68.0668 59.9071 68.0651 60.301C68.0498 62.9294 66.168 63.9108 65.0294 64.3183Z" fill="#F06292"/>
</svg>
