<svg width="100" height="100" viewBox="0 0 100 100" fill="none" xmlns="http://www.w3.org/2000/svg">
<path d="M81 19H19V81H81V19Z" fill="#1976D2"/>
<path d="M56 47H33V52.6213H41.2493V78H47.7853V52.6213H56V47Z" fill="white"/>
<path d="M76.5431 54.0368C76.5431 54.0368 73.3951 51.9787 69.8365 51.9787C66.278 51.9787 64.9973 53.6362 64.9973 55.4077C64.9973 59.9799 78 59.5223 78 68.7235C78 82.8975 58.1744 76.6108 58.1744 76.6108V69.8113C58.1744 69.8113 61.9655 72.6119 66.5123 72.6119C71.0591 72.6119 70.8865 69.6974 70.8865 69.2968C70.8865 65.0683 58 65.0683 58 55.6944C58 42.9501 76.7757 47.978 76.7757 47.978L76.5431 54.0368Z" fill="white"/>
</svg>
