<svg width="49" height="48" viewBox="0 0 49 48" fill="none" xmlns="http://www.w3.org/2000/svg">
<path d="M4.50803 44L7.21203 34.064C5.4303 31.0097 4.49422 27.536 4.50003 24C4.50003 12.954 13.454 4 24.5 4C35.546 4 44.5 12.954 44.5 24C44.5 35.046 35.546 44 24.5 44C20.9656 44.0057 17.4933 43.0703 14.44 41.29L4.50803 44ZM17.282 14.616C17.0238 14.632 16.7714 14.7001 16.54 14.816C16.3231 14.9389 16.125 15.0924 15.952 15.272C15.712 15.498 15.576 15.694 15.43 15.884C14.6908 16.846 14.2932 18.0268 14.3 19.24C14.304 20.22 14.56 21.174 14.96 22.066C15.778 23.87 17.124 25.78 18.902 27.55C19.33 27.976 19.748 28.404 20.198 28.802C22.4048 30.7449 25.0345 32.1461 27.878 32.894L29.016 33.068C29.386 33.088 29.756 33.06 30.128 33.042C30.7105 33.0119 31.2793 32.8542 31.794 32.58C32.0559 32.4451 32.3115 32.2983 32.56 32.14C32.56 32.14 32.646 32.084 32.81 31.96C33.08 31.76 33.246 31.618 33.47 31.384C33.636 31.212 33.78 31.01 33.89 30.78C34.046 30.454 34.202 29.832 34.266 29.314C34.314 28.918 34.3 28.702 34.294 28.568C34.286 28.354 34.108 28.132 33.914 28.038L32.75 27.516C32.75 27.516 31.01 26.758 29.948 26.274C29.8361 26.2252 29.7161 26.1974 29.594 26.192C29.4572 26.1779 29.3189 26.1933 29.1885 26.2372C29.0581 26.281 28.9386 26.3522 28.838 26.446V26.442C28.828 26.442 28.694 26.556 27.248 28.308C27.165 28.4195 27.0507 28.5038 26.9196 28.5501C26.7886 28.5964 26.6467 28.6026 26.512 28.568C26.3817 28.5332 26.2541 28.489 26.13 28.436C25.882 28.332 25.796 28.292 25.626 28.218L25.616 28.214C24.4718 27.7145 23.4125 27.0397 22.476 26.214C22.224 25.994 21.99 25.754 21.75 25.522C20.9632 24.7685 20.2775 23.916 19.71 22.986L19.592 22.796C19.5073 22.6683 19.4387 22.5306 19.388 22.386C19.312 22.092 19.51 21.856 19.51 21.856C19.51 21.856 19.996 21.324 20.222 21.036C20.4102 20.7966 20.5858 20.5476 20.748 20.29C20.984 19.91 21.058 19.52 20.934 19.218C20.374 17.85 19.794 16.488 19.198 15.136C19.08 14.868 18.73 14.676 18.412 14.638C18.304 14.626 18.196 14.614 18.088 14.606C17.8194 14.5927 17.5503 14.5953 17.282 14.614V14.616Z" fill="url(#paint0_linear_2905_2279)"/>
<defs>
<linearGradient id="paint0_linear_2905_2279" x1="4.5" y1="24.0469" x2="44.4709" y2="22.9685" gradientUnits="userSpaceOnUse">
<stop stop-color="#6366F1"/>
<stop offset="0.526042" stop-color="#B66AF7"/>
<stop offset="1" stop-color="#FF53CF"/>
</linearGradient>
</defs>
</svg>
