<svg width="100" height="100" viewBox="0 0 100 100" fill="none" xmlns="http://www.w3.org/2000/svg">
<path d="M19.9597 28H81.0003C84.8634 28 87.9905 31.127 87.9905 34.9902V58.2903C87.9905 62.1535 84.8634 65.2806 81.0003 65.2806H59.1103L62.115 72.6384L48.9011 65.2806H19.9902C16.1273 65.2806 13.0002 62.1535 13.0002 58.2903V34.9902C12.9695 31.1578 16.0962 28 19.9597 28Z" fill="#9B5C8F"/>
<path d="M17.2703 34.3713C17.6971 33.7919 18.3372 33.4872 19.1908 33.4263C20.7457 33.3041 21.6297 34.0356 21.843 35.6209C22.788 41.9922 23.8244 47.388 24.9217 51.808L31.5976 39.0963C32.2075 37.9377 32.9697 37.3281 33.8842 37.2672C35.2256 37.1758 36.0484 38.0291 36.3838 39.8277C37.146 43.8819 38.1215 47.3268 39.2797 50.2532C40.0724 42.5104 41.4138 36.9318 43.3038 33.4872C43.7607 32.6336 44.4315 32.2068 45.3156 32.1456C46.0169 32.0849 46.6569 32.2982 47.2361 32.7555C47.8152 33.2127 48.1201 33.7919 48.1811 34.4931C48.2115 35.0418 48.1201 35.4991 47.8764 35.9563C46.6874 38.1513 45.7117 41.8399 44.9193 46.9609C44.1574 51.9299 43.8829 55.8016 44.0657 58.5756C44.1269 59.3373 44.0047 60.0081 43.7001 60.5875C43.3339 61.258 42.7856 61.6239 42.0843 61.6848C41.2916 61.7458 40.4688 61.3802 39.6761 60.557C36.8411 57.6608 34.5852 53.3322 32.9392 47.5708C30.9576 51.4726 29.4944 54.399 28.5494 56.35C26.7508 59.7948 25.2266 61.563 23.9462 61.6544C23.1231 61.7153 22.4221 61.014 21.8125 59.5511C20.2579 55.5576 18.5812 47.845 16.7829 36.4136C16.6607 35.6209 16.8435 34.9196 17.2703 34.3713ZM82.7804 39.1572C81.6831 37.2367 80.0673 36.0785 77.9031 35.6209C77.3237 35.4991 76.7753 35.4381 76.2568 35.4381C73.3304 35.4381 70.9527 36.9623 69.0932 40.0108C67.5078 42.6018 66.7155 45.4672 66.7155 48.6072C66.7155 50.9544 67.2032 52.9663 68.1787 54.643C69.276 56.5635 70.8918 57.7218 73.056 58.179C73.6351 58.3012 74.1838 58.3621 74.7022 58.3621C77.6591 58.3621 80.0368 56.838 81.8659 53.7894C83.451 51.1677 84.2436 48.3022 84.2436 45.1626C84.2741 42.7849 83.7559 40.8032 82.7804 39.1572ZM78.9395 47.6012C78.5127 49.6131 77.7505 51.1068 76.6224 52.1127C75.7386 52.9054 74.9155 53.2405 74.1536 53.0882C73.4218 52.9358 72.812 52.2958 72.355 51.1068C71.9888 50.1618 71.8063 49.2168 71.8063 48.3327C71.8063 47.5708 71.8673 46.8086 72.0196 46.1076C72.2941 44.8576 72.8122 43.6382 73.6351 42.4799C74.6413 40.986 75.7082 40.3767 76.8055 40.5899C77.5372 40.7422 78.1471 41.3826 78.6041 42.5713C78.97 43.5163 79.1528 44.4613 79.1528 45.3454C79.1528 46.1381 79.0918 46.9 78.9395 47.601V47.6012ZM63.6974 39.1572C62.6001 37.2367 60.9538 36.0785 58.8201 35.6209C58.2409 35.4991 57.6923 35.4381 57.1738 35.4381C54.2474 35.4381 51.8697 36.9623 50.0101 40.0108C48.4251 42.6018 47.6324 45.4672 47.6324 48.6072C47.6324 50.9544 48.1201 52.9663 49.0956 54.643C50.1929 56.5635 51.8087 57.7218 53.9729 58.179C54.5523 58.3012 55.1007 58.3621 55.6192 58.3621C58.576 58.3621 60.9538 56.838 62.7828 53.7894C64.3682 51.1677 65.1606 48.3022 65.1606 45.1626C65.1606 42.7849 64.6728 40.8032 63.6974 39.1572ZM59.826 47.6012C59.3992 49.6131 58.637 51.1068 57.5092 52.1127C56.6251 52.9054 55.802 53.2405 55.0398 53.0882C54.3083 52.9358 53.6987 52.2958 53.2412 51.1068C52.8756 50.1618 52.6928 49.2168 52.6928 48.3327C52.6928 47.5708 52.7537 46.8086 52.9061 46.1076C53.1805 44.8576 53.6987 43.6382 54.5219 42.4799C55.5278 40.986 56.5947 40.3767 57.692 40.5899C58.4237 40.7422 59.0336 41.3826 59.4906 42.5713C59.8567 43.5163 60.0392 44.4613 60.0392 45.3454C60.07 46.1381 59.9783 46.9 59.826 47.601V47.6012Z" fill="white"/>
</svg>
