<svg width="100" height="100" viewBox="0 0 100 100" fill="none" xmlns="http://www.w3.org/2000/svg">
<path d="M18.2594 49.9996C18.2594 62.5641 25.5609 73.4212 36.1486 78.5671L21.0075 37.0818C19.1925 41.1463 18.256 45.5482 18.2594 49.9996ZM71.4287 48.3979C71.4287 44.475 70.0196 41.7583 68.8111 39.6438C67.2021 37.0292 65.6945 34.815 65.6945 32.2004C65.6945 29.2826 67.9069 26.5665 71.024 26.5665C71.1648 26.5665 71.2982 26.584 71.4359 26.5919C65.7882 21.4182 58.2644 18.2594 50.0008 18.2594C38.9118 18.2594 29.1558 23.9489 23.4802 32.5664C24.2249 32.5888 24.9273 32.6039 25.5229 32.6039C28.8429 32.6039 33.9822 32.201 33.9822 32.201C35.6932 32.1002 35.8949 34.6133 34.1863 34.8156C34.1863 34.8156 32.4662 35.018 30.5528 35.1182L42.1117 69.4996L49.0586 48.6666L44.1126 35.1176C42.4034 35.0174 40.7841 34.815 40.7841 34.815C39.0737 34.7148 39.2742 32.0996 40.9847 32.2004C40.9847 32.2004 46.2266 32.6033 49.3455 32.6033C52.665 32.6033 57.8048 32.2004 57.8048 32.2004C59.5171 32.0996 59.7182 34.6127 58.0083 34.815C58.0083 34.815 56.2852 35.0174 54.3754 35.1176L65.8461 69.2387L69.0116 58.6588C70.3844 54.2685 71.4287 51.1151 71.4287 48.3979Z" fill="#00749A"/>
<path d="M50.5577 52.7761L41.0342 80.4491C43.9458 81.3071 46.9654 81.7428 50.0008 81.7428C53.6972 81.7428 57.2419 81.1032 60.5414 79.9435C60.4529 79.805 60.3773 79.6586 60.3155 79.5063L50.5577 52.7761ZM77.8526 34.7709C77.9891 35.782 78.0664 36.8679 78.0664 38.0348C78.0664 41.2558 77.4648 44.8767 75.6529 49.4041L65.9573 77.4364C75.3938 71.9336 81.741 61.7101 81.741 49.9996C81.7495 44.6767 80.4119 39.4382 77.8526 34.7709Z" fill="#00749A"/>
<path d="M50.0008 13C29.5991 13 13 29.5979 13 49.9996C13 70.4037 29.5985 87.0016 50.0008 87.0016C70.4019 87.0016 87.0034 70.4043 87.0034 49.9996C87.0028 29.5979 70.4019 13 50.0008 13ZM50.0008 85.305C30.5346 85.305 14.6966 69.467 14.6966 49.9996C14.6966 30.534 30.534 14.6972 50.0008 14.6972C69.4664 14.6972 85.3032 30.534 85.3032 49.9996C85.3032 69.467 69.4658 85.305 50.0008 85.305Z" fill="#00749A"/>
</svg>
