<svg width="49" height="48" viewBox="0 0 49 48" fill="none" xmlns="http://www.w3.org/2000/svg">
<g clip-path="url(#clip0_2905_2273)">
<path fill-rule="evenodd" clip-rule="evenodd" d="M24.5 0C11.24 0 0.5 10.74 0.5 24C0.5 34.62 7.37 43.59 16.91 46.77C18.11 46.98 18.56 46.26 18.56 45.63C18.56 45.06 18.53 43.17 18.53 41.16C12.5 42.27 10.94 39.69 10.46 38.34C10.19 37.65 9.02 35.52 8 34.95C7.16 34.5 5.96 33.39 7.97 33.36C9.86 33.33 11.21 35.1 11.66 35.82C13.82 39.45 17.27 38.43 18.65 37.8C18.86 36.24 19.49 35.19 20.18 34.59C14.84 33.99 9.26 31.92 9.26 22.74C9.26 20.13 10.19 17.97 11.72 16.29C11.48 15.69 10.64 13.23 11.96 9.93C11.96 9.93 13.97 9.3 18.56 12.39C20.48 11.85 22.52 11.58 24.56 11.58C26.6 11.58 28.64 11.85 30.56 12.39C35.15 9.27 37.16 9.93 37.16 9.93C38.48 13.23 37.64 15.69 37.4 16.29C38.93 17.97 39.86 20.1 39.86 22.74C39.86 31.95 34.25 33.99 28.91 34.59C29.78 35.34 30.53 36.78 30.53 39.03C30.53 42.24 30.5 44.82 30.5 45.63C30.5 46.26 30.95 47.01 32.15 46.77C36.9144 45.1614 41.0544 42.0994 43.9873 38.0147C46.9203 33.9301 48.4986 29.0286 48.5 24C48.5 10.74 37.76 0 24.5 0Z" fill="url(#paint0_linear_2905_2273)"/>
</g>
<defs>
<linearGradient id="paint0_linear_2905_2273" x1="0.5" y1="23.4627" x2="48.4633" y2="22.136" gradientUnits="userSpaceOnUse">
<stop stop-color="#6366F1"/>
<stop offset="0.316519" stop-color="#AF9DFF"/>
<stop offset="0.642845" stop-color="#B66AF7"/>
<stop offset="1" stop-color="#FF53CF"/>
</linearGradient>
<clipPath id="clip0_2905_2273">
<rect width="48" height="48" fill="white" transform="translate(0.5)"/>
</clipPath>
</defs>
</svg>
